<svg xmlns="http://www.w3.org/2000/svg" xmlns:xlink="http://www.w3.org/1999/xlink" width="120.65mm" height="101.6mm" viewBox="4010.5 3138.5 190 160"><title></title><style type="text/css">
*[layerid="1"] {stroke:#FF0000;fill:#FF0000;}
*[layerid="2"] {stroke:#0000FF;fill:#0000FF;}
*[layerid="3"] {stroke:#FFCC00;fill:#FFCC00;}
*[layerid="4"] {stroke:#66CC33;fill:#66CC33;}
*[layerid="5"] {stroke:#808080;fill:#808080;}
*[layerid="6"] {stroke:#800000;fill:#800000;}
*[layerid="7"] {stroke:#800080;fill:#800080;stroke-opacity:0.7;fill-opacity:0.7;}
*[layerid="8"] {stroke:#AA00FF;fill:#AA00FF;stroke-opacity:0.7;fill-opacity:0.7;}
*[layerid="9"] {stroke:#6464FF;fill:#6464FF;}
*[layerid="10"] {stroke:#FF00FF;fill:#FF00FF;}
*[layerid="11"] {stroke:#C0C0C0;fill:#C0C0C0;}
*[layerid="12"] {stroke:#FFFFFF;fill:#FFFFFF;}
*[layerid="13"] {stroke:#33CC99;fill:#33CC99;}
*[layerid="14"] {stroke:#5555FF;fill:#5555FF;}
*[layerid="15"] {stroke:#F022F0;fill:#F022F0;}
*[layerid="19"] {stroke:#66CCFF;fill:#66CCFF;}
*[layerid="21"] {stroke:#999966;fill:#999966;}
*[layerid="22"] {stroke:#008000;fill:#008000;}
*[layerid="23"] {stroke:#00FF00;fill:#00FF00;}
*[layerid="24"] {stroke:#BC8E00;fill:#BC8E00;}
*[layerid="25"] {stroke:#70DBFA;fill:#70DBFA;}
*[layerid="26"] {stroke:#00CC66;fill:#00CC66;}
*[layerid="27"] {stroke:#9966FF;fill:#9966FF;}
*[layerid="28"] {stroke:#800080;fill:#800080;}
*[layerid="29"] {stroke:#008080;fill:#008080;}
*[layerid="30"] {stroke:#15935F;fill:#15935F;}
*[layerid="31"] {stroke:#000080;fill:#000080;}
*[layerid="32"] {stroke:#00B400;fill:#00B400;}
*[layerid="33"] {stroke:#2E4756;fill:#2E4756;}
*[layerid="34"] {stroke:#99842F;fill:#99842F;}
*[layerid="35"] {stroke:#FFFFAA;fill:#FFFFAA;}
*[layerid="36"] {stroke:#99842F;fill:#99842F;}
*[layerid="37"] {stroke:#2E4756;fill:#2E4756;}
*[layerid="38"] {stroke:#3535FF;fill:#3535FF;}
*[layerid="39"] {stroke:#8000BC;fill:#8000BC;}
*[layerid="40"] {stroke:#43AE5F;fill:#43AE5F;}
*[layerid="41"] {stroke:#C3ECCE;fill:#C3ECCE;}
*[layerid="42"] {stroke:#728978;fill:#728978;}
*[layerid="43"] {stroke:#39503F;fill:#39503F;}
*[layerid="44"] {stroke:#0C715D;fill:#0C715D;}
*[layerid="45"] {stroke:#5A8A80;fill:#5A8A80;}
*[layerid="46"] {stroke:#2B937E;fill:#2B937E;}
*[layerid="47"] {stroke:#23999D;fill:#23999D;}
*[layerid="48"] {stroke:#45B4E3;fill:#45B4E3;}
*[layerid="49"] {stroke:#215DA1;fill:#215DA1;}
*[layerid="50"] {stroke:#4564D7;fill:#4564D7;}
*[layerid="51"] {stroke:#6969E9;fill:#6969E9;}
*[layerid="52"] {stroke:#9069E9;fill:#9069E9;}
*[layerid="99"] {stroke:#00CCCC;fill:#00CCCC;stroke-opacity:0.6;fill-opacity:0.6;}
*[layerid="100"] {stroke:#CC9999;fill:#CC9999;}
*[layerid="101"] {stroke:#66FFCC;fill:#66FFCC;}
*[layerid="Hole"] {stroke:#222222;fill:#222222;}
*[layerid="DRCError"] {stroke:#FAD609;fill:#FAD609;}
*[fill="none"] {fill: none;}
*[stroke="none"] {stroke: none;}
path, polyline, polygon, line {stroke-linecap:round;}
g[c_partid="part_pad"][layerid="1"] ellipse:not([c_etype="pad_outer"]) {fill:#FF0000;}
g[c_partid="part_pad"][layerid="1"] polygon:not([c_etype="pad_outer"]) {fill:#FF0000;}
g[c_partid="part_pad"][layerid="1"] polyline:not([c_etype="pad_outer"]) {stroke:#FF0000;}
g[c_partid="part_pad"][layerid="2"] ellipse:not([c_etype="pad_outer"]) {fill:#0000FF;}
g[c_partid="part_pad"][layerid="2"] polygon:not([c_etype="pad_outer"]) {fill:#0000FF;}
g[c_partid="part_pad"][layerid="2"] polyline:not([c_etype="pad_outer"]) {stroke:#0000FF;}
g[c_partid="part_pad"][layerid="11"] ellipse:not([c_etype="pad_outer"]) {fill:#C0C0C0;}
g[c_partid="part_pad"][layerid="11"] polygon:not([c_etype="pad_outer"]) {fill:#C0C0C0;}
g[c_partid="part_pad"][layerid="11"] polyline:not([c_etype="pad_outer"]) {stroke:#C0C0C0;}
g[c_partid="part_pad"][layerid="11"] circle {fill:#222222;}
g[c_partid="part_pad"][layerid="11"] > polyline:nth-of-type(2) {stroke:#222222;}
g[c_partid="part_pad"][layerid="11"][c_shape="ELLIPSE"]  polyline:nth-last-of-type(1) {stroke:#222222;}
g[c_partid="part_pad"][layerid="11"][c_shape="RECT"]  polyline:nth-last-of-type(1) {stroke:#222222;}
g[c_partid="part_pad"][layerid="11"][c_shape="POLYGON"]  polyline:nth-last-of-type(1) {stroke:#222222;}
g[c_partid="part_via"] > * + circle, #gCurParts g[c_partid="part_via"] > * + circle {fill:#222222;}
g[c_partid="part_pad"] > polygon[c_etype="pad_outer"], #gCurParts g[c_partid="part_pad"] > polygon[c_etype="pad_outer"] {stroke-linejoin: miter;stroke-miterlimit: 100;}
g[c_partid="part_hole"] > circle {fill: #222222;}path, polyline, polygon {stroke-linejoin:round;}
rect, circle, ellipse, polyline, line, polygon, path {shape-rendering:crispEdges;}
</style>
<rect x="4010.5" y="3138.5" width="190" height="160" fill="#000000" stroke="none"/><polyline points="4100 3158 4070 3158" stroke-width="3.937"  stroke-linecap="round" fill="none" layerid="1" net="1" id="gge883" locked="0" /><polyline points="4152.92 3245.24 4153.5 3245.24 4153.5 3252 4110.5 3252 4110.5 3275.5 4094 3275.5" stroke-width="3.937"  stroke-linecap="round" fill="none" layerid="1" net="1" id="gge809" locked="0" /><polyline points="4120 3155.5 4115 3155.5 4115 3188.5 4030 3188.5 4030 3208" stroke-width="3.937"  stroke-linecap="round" fill="none" layerid="1" net="1" id="gge808" locked="0" /><polyline points="4166.5 3228.2986 4175 3228.2986 4175 3161.5 4124.5 3161.5 4124.5 3190.696" stroke-width="3.937"  stroke-linecap="round" fill="none" layerid="1" net="1" id="gge807" locked="0" /><polyline points="4134 3168.163 4134.374 3168.163 4134.374 3225" stroke-width="3.937"  stroke-linecap="round" fill="none" layerid="1" net="1" id="gge811" locked="0" /><polyline points="4094 3198 4124.5 3198 4124.5 3198.304" stroke-width="3.937"  stroke-linecap="round" fill="none" layerid="1" net="1" id="gge806" locked="0" /><polyline points="4040 3198 4094 3198 4094 3217.196" stroke-width="3.937"  stroke-linecap="round" fill="none" layerid="1" net="1" id="gge801" locked="0" /><polyline points="4144 3154.837 4166 3154.837 4166 3155.5" stroke-width="3.937"  stroke-linecap="round" fill="none" layerid="1" net="1" id="gge769" locked="0" /><polyline points="4120 3155.5 4134 3155.5 4134 3155.337" stroke-width="3.937"  stroke-linecap="round" fill="none" layerid="1" net="1" id="gge745" locked="0" /><polyline points="4030 3208 4040 3208" stroke-width="3.937"  stroke-linecap="round" fill="none" layerid="1" net="1" id="gge736" locked="0" /><polyline points="4040 3249.232 4030 3249.232 4030 3208" stroke-width="3.937"  stroke-linecap="round" fill="none" layerid="1" net="1" id="gge728" locked="0" /><polyline points="4121.5 3225 4143.08 3225 4143.08 3241.5" stroke-width="3.937"  stroke-linecap="round" fill="none" layerid="1" net="1" id="gge483" locked="0" /><polyline points="4152.92 3237.76 4166.5 3237.76 4166.5 3217.146" stroke-width="3.937"  stroke-linecap="round" fill="none" layerid="1" net="1" id="gge482" locked="0" /><polyline points="4144 3168.163 4166.5 3168.163 4166.5 3198.013" stroke-width="3.937"  stroke-linecap="round" fill="none" layerid="1" net="1" id="gge481" locked="0" /><polyline points="4166.5 3198.013 4166.5 3212.854" stroke-width="3.937"  stroke-linecap="round" fill="none" layerid="1" net="1" id="gge788" locked="0" /><polyline points="4144 3168.163 4134 3168.163 4134 3168.663" stroke-width="3.937"  stroke-linecap="round" fill="none" layerid="1" net="1" id="gge479" locked="0" /><polyline points="4134 3155.337 4144 3155.337 4144 3154.837" stroke-width="3.937"  stroke-linecap="round" fill="none" layerid="1" net="1" id="gge478" locked="0" /><polyline points="4053.5 3249.232 4040 3249.232 4040 3249" stroke-width="3.937"  stroke-linecap="round" fill="none" layerid="1" net="1" id="gge461" locked="0" /><polyline points="4094 3258.196 4093.8814 3258.196 4093.8814 3234" stroke-width="3.937"  stroke-linecap="round" fill="none" layerid="1" net="1" id="gge460" locked="0" /><polyline points="4111.58 3234 4070.5 3234 4070.5 3225.055" stroke-width="3.937"  stroke-linecap="round" fill="none" layerid="1" net="1" id="gge459" locked="0" /><polyline points="4121.42 3230.26 4121.5 3225 4094 3225 4094 3224.8" stroke-width="3.937"  stroke-linecap="round" fill="none" layerid="1" net="1" id="gge458" locked="0" /><polyline points="4061.5 3265.768 4040.5 3265.768 4040.5 3266" stroke-width="3.937"  stroke-linecap="round" fill="none" layerid="1" net="1" id="gge456" locked="0" /><polyline points="4053.5 3216.5 4040 3216.5" stroke-width="3.937"  stroke-linecap="round" fill="none" layerid="1" net="1" id="gge455" locked="0" /><polyline points="4094 3265.804 4094 3275.5 4040.5 3275.5" stroke-width="3.937"  stroke-linecap="round" fill="none" layerid="1" net="1" id="gge454" locked="0" /><polyline points="4061.5 3249.232 4053.5 3249.232 4053.5 3249" stroke-width="3.937"  stroke-linecap="round" fill="none" layerid="1" net="1" id="gge366" locked="0" /><polyline points="4053.5 3249 4053.5 3235.466" stroke-width="3.937"  stroke-linecap="round" fill="none" layerid="1" net="1" id="gge364" locked="0" /><polyline points="4053.5 3229.534 4053.5 3216.5 4070.5 3216.5 4070.5 3216.945" stroke-width="3.937"  stroke-linecap="round" fill="none" layerid="1" net="1" id="gge343" locked="0" /><g c_partid="part_pad" c_etype="pinpart" c_origin="4061.5,3249.232" layerid="1" number="1" net="1" plated ="Y"  id="gge21" locked="0" c_rotation="270" c_width="11.0236" c_height="4.3307" title="1" c_shape="RECT" pasteexpansion="0.0000" solderexpansion="0.2000"><polygon  c_etype="pad_shell" points="4063.6654 3243.7205 4063.6654 3254.7441 4059.3347 3254.7441 4059.3347 3243.7205" layerid="1" stroke-width="0" /><circle c_etype="pad_hole" cx="4061.5" cy="3249.2331" r="0" layerid="1" stroke-width="0"/></g><g c_partid="part_pad" c_etype="pinpart" c_origin="4061.5,3265.768" layerid="1" number="2" net="1" plated ="Y"  id="gge26" locked="0" c_rotation="270" c_width="11.0236" c_height="4.3307" title="1" c_shape="RECT" pasteexpansion="0.0000" solderexpansion="0.2000"><polygon  c_etype="pad_shell" points="4063.6654 3260.2559 4063.6654 3271.2795 4059.3347 3271.2795 4059.3347 3260.2559" layerid="1" stroke-width="0" /><circle c_etype="pad_hole" cx="4061.5" cy="3265.7669" r="0" layerid="1" stroke-width="0"/></g><g c_partid="part_pad" c_etype="pinpart" c_origin="4070.5,3216.945" layerid="1" number="2" net="1" plated ="Y"  id="gge55" locked="0" c_rotation="90" c_width="5.5512" c_height="5.315" title="1" c_shape="RECT" pasteexpansion="-393.7008" solderexpansion="0.2000"><polygon  c_etype="pad_shell" points="4073.1575 3219.7205 4067.8425 3219.7205 4067.8425 3214.1693 4073.1575 3214.1693" layerid="1" stroke-width="0" /><circle c_etype="pad_hole" cx="4070.5" cy="3216.9449" r="0" layerid="1" stroke-width="0"/></g><g c_partid="part_pad" c_etype="pinpart" c_origin="4070.5,3225.055" layerid="1" number="1" net="1" plated ="Y"  id="gge60" locked="0" c_rotation="90" c_width="5.5512" c_height="5.315" title="1" c_shape="RECT" pasteexpansion="-393.7008" solderexpansion="0.2000"><polygon  c_etype="pad_shell" points="4073.1575 3222.2795 4067.8425 3222.2795 4067.8425 3227.8307 4073.1575 3227.8307" layerid="1" stroke-width="0" /><circle c_etype="pad_hole" cx="4070.5" cy="3225.0551" r="0" layerid="1" stroke-width="0"/></g><g c_partid="part_pad" c_etype="pinpart" c_origin="4166.5,3212.854" layerid="1" number="2" net="1" plated ="Y"  id="gge89" locked="0" c_rotation="90" c_width="3.1106" c_height="2.126" title="1" c_shape="RECT" pasteexpansion="-393.7008" solderexpansion="0.2000"><polygon  c_etype="pad_shell" points="4167.563 3214.4094 4165.437 3214.4094 4165.437 3211.2988 4167.563 3211.2988" layerid="1" stroke-width="0" /><circle c_etype="pad_hole" cx="4166.5" cy="3212.8541" r="0" layerid="1" stroke-width="0"/></g><g c_partid="part_pad" c_etype="pinpart" c_origin="4166.5,3217.146" layerid="1" number="1" net="1" plated ="Y"  id="gge94" locked="0" c_rotation="90" c_width="3.1106" c_height="2.126" title="1" c_shape="RECT" pasteexpansion="-393.7008" solderexpansion="0.2000"><polygon  c_etype="pad_shell" points="4167.563 3215.5906 4165.437 3215.5906 4165.437 3218.7012 4167.563 3218.7012" layerid="1" stroke-width="0" /><circle c_etype="pad_hole" cx="4166.5" cy="3217.1459" r="0" layerid="1" stroke-width="0"/></g><g c_partid="part_pad" c_etype="pinpart" c_origin="4134,3168.663" layerid="1" number="2" net="1" plated ="Y"  id="gge121" locked="0" c_rotation="270" c_width="3.7402" c_height="4.5276" title="1" c_shape="RECT" pasteexpansion="0.0000" solderexpansion="0.2000"><polygon  c_etype="pad_shell" points="4136.2638 3166.7929 4136.2638 3170.5331 4131.7362 3170.5331 4131.7362 3166.7929" layerid="1" stroke-width="0" /><circle c_etype="pad_hole" cx="4134" cy="3168.6634" r="0" layerid="1" stroke-width="0"/></g><g c_partid="part_pad" c_etype="pinpart" c_origin="4134,3155.337" layerid="1" number="1" net="1" plated ="Y"  id="gge126" locked="0" c_rotation="270" c_width="3.7402" c_height="4.5276" title="1" c_shape="RECT" pasteexpansion="0.0000" solderexpansion="0.2000"><polygon  c_etype="pad_shell" points="4136.2638 3153.4669 4136.2638 3157.2071 4131.7362 3157.2071 4131.7362 3153.4669" layerid="1" stroke-width="0" /><circle c_etype="pad_hole" cx="4134" cy="3155.3366" r="0" layerid="1" stroke-width="0"/></g><g c_partid="part_pad" c_etype="pinpart" c_origin="4144,3154.837" layerid="1" number="2" net="1" plated ="Y"  id="gge153" locked="0" c_rotation="90" c_width="3.7402" c_height="4.5276" title="1" c_shape="RECT" pasteexpansion="0.0000" solderexpansion="0.2000"><polygon  c_etype="pad_shell" points="4141.7362 3156.7071 4141.7362 3152.9669 4146.2638 3152.9669 4146.2638 3156.7071" layerid="1" stroke-width="0" /><circle c_etype="pad_hole" cx="4144" cy="3154.8366" r="0" layerid="1" stroke-width="0"/></g><g c_partid="part_pad" c_etype="pinpart" c_origin="4144,3168.163" layerid="1" number="1" net="1" plated ="Y"  id="gge158" locked="0" c_rotation="90" c_width="3.7402" c_height="4.5276" title="1" c_shape="RECT" pasteexpansion="0.0000" solderexpansion="0.2000"><polygon  c_etype="pad_shell" points="4141.7362 3170.0331 4141.7362 3166.2929 4146.2638 3166.2929 4146.2638 3170.0331" layerid="1" stroke-width="0" /><circle c_etype="pad_hole" cx="4144" cy="3168.1634" r="0" layerid="1" stroke-width="0"/></g><g c_partid="part_pad" c_etype="pinpart" c_origin="4121.42,3237.74" layerid="1" number="2" net="1" plated ="Y"  id="gge183" locked="0" c_rotation="270" c_width="2.7559" c_height="4.9213" title="1" c_shape="RECT" pasteexpansion="0" solderexpansion="0.2"><polygon  c_etype="pad_shell" points="4123.881 3236.362 4123.881 3239.118 4118.959 3239.118 4118.959 3236.362" layerid="1" stroke-width="0" /><circle c_etype="pad_hole" cx="4121.42" cy="3237.74" r="0" layerid="1" stroke-width="0"/></g><g c_partid="part_pad" c_etype="pinpart" c_origin="4121.42,3230.26" layerid="1" number="1" net="1" plated ="Y"  id="gge188" locked="0" c_rotation="270" c_width="2.7559" c_height="4.9213" title="1" c_shape="RECT" pasteexpansion="0" solderexpansion="0.2"><polygon  c_etype="pad_shell" points="4123.881 3228.882 4123.881 3231.638 4118.959 3231.638 4118.959 3228.882" layerid="1" stroke-width="0" /><circle c_etype="pad_hole" cx="4121.42" cy="3230.26" r="0" layerid="1" stroke-width="0"/></g><g c_partid="part_pad" c_etype="pinpart" c_origin="4111.58,3234" layerid="1" number="3" net="1" plated ="Y"  id="gge193" locked="0" c_rotation="270" c_width="2.7559" c_height="4.9213" title="1" c_shape="RECT" pasteexpansion="0" solderexpansion="0.2"><polygon  c_etype="pad_shell" points="4114.0406 3232.622 4114.0406 3235.378 4109.1194 3235.378 4109.1194 3232.622" layerid="1" stroke-width="0" /><circle c_etype="pad_hole" cx="4111.58" cy="3234" r="0" layerid="1" stroke-width="0"/></g><g c_partid="part_pad" c_etype="pinpart" c_origin="4152.92,3245.24" layerid="1" number="2" net="1" plated ="Y"  id="gge218" locked="0" c_rotation="270" c_width="2.7559" c_height="4.9213" title="1" c_shape="RECT" pasteexpansion="0" solderexpansion="0.2"><polygon  c_etype="pad_shell" points="4155.381 3243.862 4155.381 3246.618 4150.459 3246.618 4150.459 3243.862" layerid="1" stroke-width="0" /><circle c_etype="pad_hole" cx="4152.92" cy="3245.24" r="0" layerid="1" stroke-width="0"/></g><g c_partid="part_pad" c_etype="pinpart" c_origin="4152.92,3237.76" layerid="1" number="1" net="1" plated ="Y"  id="gge223" locked="0" c_rotation="270" c_width="2.7559" c_height="4.9213" title="1" c_shape="RECT" pasteexpansion="0" solderexpansion="0.2"><polygon  c_etype="pad_shell" points="4155.381 3236.382 4155.381 3239.138 4150.459 3239.138 4150.459 3236.382" layerid="1" stroke-width="0" /><circle c_etype="pad_hole" cx="4152.92" cy="3237.76" r="0" layerid="1" stroke-width="0"/></g><g c_partid="part_pad" c_etype="pinpart" c_origin="4143.08,3241.5" layerid="1" number="3" net="1" plated ="Y"  id="gge228" locked="0" c_rotation="270" c_width="2.7559" c_height="4.9213" title="1" c_shape="RECT" pasteexpansion="0" solderexpansion="0.2"><polygon  c_etype="pad_shell" points="4145.5406 3240.122 4145.5406 3242.878 4140.6194 3242.878 4140.6194 3240.122" layerid="1" stroke-width="0" /><circle c_etype="pad_hole" cx="4143.08" cy="3241.5" r="0" layerid="1" stroke-width="0"/></g><g c_partid="part_pad" c_etype="pinpart" c_origin="4053.5,3235.466" layerid="1" number="2" net="1" plated ="Y"  id="gge249" locked="0" c_rotation="270" c_width="3.1751" c_height="3.4016" title="1" c_shape="RECT" pasteexpansion="-393.7008" solderexpansion="0.2000"><polygon  c_etype="pad_shell" points="4051.7992 3233.878 4055.2008 3233.878 4055.2008 3237.0531 4051.7992 3237.0531" layerid="1" stroke-width="0" /><circle c_etype="pad_hole" cx="4053.5" cy="3235.4655" r="0" layerid="1" stroke-width="0"/></g><g c_partid="part_pad" c_etype="pinpart" c_origin="4053.5,3229.534" layerid="1" number="1" net="1" plated ="Y"  id="gge254" locked="0" c_rotation="270" c_width="3.1751" c_height="3.4016" title="1" c_shape="RECT" pasteexpansion="-393.7008" solderexpansion="0.2000"><polygon  c_etype="pad_shell" points="4051.7992 3231.122 4055.2008 3231.122 4055.2008 3227.9469 4051.7992 3227.9469" layerid="1" stroke-width="0" /><circle c_etype="pad_hole" cx="4053.5" cy="3229.5345" r="0" layerid="1" stroke-width="0"/></g><g c_partid="part_pad" c_etype="pinpart" c_origin="4124.5,3198.304" layerid="1" number="2" net="1" plated ="Y"  id="gge275" locked="0" c_rotation="270" c_width="4.4588" c_height="5.4213" title="1" c_shape="RECT" pasteexpansion="-393.7008" solderexpansion="0.2000"><polygon  c_etype="pad_shell" points="4121.7894 3196.0748 4127.2106 3196.0748 4127.2106 3200.5336 4121.7894 3200.5336" layerid="1" stroke-width="0" /><circle c_etype="pad_hole" cx="4124.5" cy="3198.3042" r="0" layerid="1" stroke-width="0"/></g><g c_partid="part_pad" c_etype="pinpart" c_origin="4124.5,3190.696" layerid="1" number="1" net="1" plated ="Y"  id="gge280" locked="0" c_rotation="270" c_width="4.4588" c_height="5.4213" title="1" c_shape="RECT" pasteexpansion="-393.7008" solderexpansion="0.2000"><polygon  c_etype="pad_shell" points="4121.7894 3192.9252 4127.2106 3192.9252 4127.2106 3188.4664 4121.7894 3188.4664" layerid="1" stroke-width="0" /><circle c_etype="pad_hole" cx="4124.5" cy="3190.6958" r="0" layerid="1" stroke-width="0"/></g><g c_partid="part_pad" c_etype="pinpart" c_origin="4094,3265.804" layerid="1" number="2" net="1" plated ="Y"  id="gge301" locked="0" c_rotation="270" c_width="4.4588" c_height="5.4213" title="1" c_shape="RECT" pasteexpansion="-393.7008" solderexpansion="0.2000"><polygon  c_etype="pad_shell" points="4091.2894 3263.5748 4096.7106 3263.5748 4096.7106 3268.0336 4091.2894 3268.0336" layerid="1" stroke-width="0" /><circle c_etype="pad_hole" cx="4094" cy="3265.8042" r="0" layerid="1" stroke-width="0"/></g><g c_partid="part_pad" c_etype="pinpart" c_origin="4094,3258.196" layerid="1" number="1" net="1" plated ="Y"  id="gge306" locked="0" c_rotation="270" c_width="4.4588" c_height="5.4213" title="1" c_shape="RECT" pasteexpansion="-393.7008" solderexpansion="0.2000"><polygon  c_etype="pad_shell" points="4091.2894 3260.4252 4096.7106 3260.4252 4096.7106 3255.9664 4091.2894 3255.9664" layerid="1" stroke-width="0" /><circle c_etype="pad_hole" cx="4094" cy="3258.1958" r="0" layerid="1" stroke-width="0"/></g><g c_partid="part_pad" c_etype="pinpart" c_origin="4094,3224.804" layerid="1" number="2" net="1" plated ="Y"  id="gge327" locked="0" c_rotation="270" c_width="4.4588" c_height="5.4213" title="1" c_shape="RECT" pasteexpansion="-393.7008" solderexpansion="0.2000"><polygon  c_etype="pad_shell" points="4091.2894 3222.5748 4096.7106 3222.5748 4096.7106 3227.0336 4091.2894 3227.0336" layerid="1" stroke-width="0" /><circle c_etype="pad_hole" cx="4094" cy="3224.8042" r="0" layerid="1" stroke-width="0"/></g><g c_partid="part_pad" c_etype="pinpart" c_origin="4094,3217.196" layerid="1" number="1" net="1" plated ="Y"  id="gge332" locked="0" c_rotation="270" c_width="4.4588" c_height="5.4213" title="1" c_shape="RECT" pasteexpansion="-393.7008" solderexpansion="0.2000"><polygon  c_etype="pad_shell" points="4091.2894 3219.4252 4096.7106 3219.4252 4096.7106 3214.9664 4091.2894 3214.9664" layerid="1" stroke-width="0" /><circle c_etype="pad_hole" cx="4094" cy="3217.1958" r="0" layerid="1" stroke-width="0"/></g><g c_partid="part_pad" c_etype="pinpart" c_origin="4040,3249.232" layerid="11" number="5" net="1" plated ="Y"  id="gge706" locked="0" c_rotation="0" c_width="6" c_height="6" title="1" c_shape="ELLIPSE" pasteexpansion="0" solderexpansion="0.4"><ellipse c_etype="pad_shell" cx="4040" cy="3249.232" rx="3" ry="3" layerid="11" stroke-width="0"/><circle c_etype="pad_hole" cx="4040" cy="3249.232" r="1.8" layerid="11" stroke-width="0"/></g><g c_partid="part_pad" c_etype="pinpart" c_origin="4040.5,3265.768" layerid="11" number="5" net="1" plated ="Y"  id="gge713" locked="0" c_rotation="0" c_width="6" c_height="6" title="1" c_shape="ELLIPSE" pasteexpansion="0" solderexpansion="0.4"><ellipse c_etype="pad_shell" cx="4040.5" cy="3265.768" rx="3" ry="3" layerid="11" stroke-width="0"/><circle c_etype="pad_hole" cx="4040.5" cy="3265.768" r="1.8" layerid="11" stroke-width="0"/></g><g c_partid="part_pad" c_etype="pinpart" c_origin="4040.5,3275.5" layerid="11" number="5" net="1" plated ="Y"  id="gge720" locked="0" c_rotation="0" c_width="6" c_height="6" title="1" c_shape="ELLIPSE" pasteexpansion="0" solderexpansion="0.4"><ellipse c_etype="pad_shell" cx="4040.5" cy="3275.5" rx="3" ry="3" layerid="11" stroke-width="0"/><circle c_etype="pad_hole" cx="4040.5" cy="3275.5" r="1.8" layerid="11" stroke-width="0"/></g><g c_partid="part_pad" c_etype="pinpart" c_origin="4040,3216.5" layerid="11" number="5" net="1" plated ="Y"  id="gge727" locked="0" c_rotation="0" c_width="6" c_height="6" title="1" c_shape="ELLIPSE" pasteexpansion="0" solderexpansion="0.4"><ellipse c_etype="pad_shell" cx="4040" cy="3216.5" rx="3" ry="3" layerid="11" stroke-width="0"/><circle c_etype="pad_hole" cx="4040" cy="3216.5" r="1.8" layerid="11" stroke-width="0"/></g><g c_partid="part_pad" c_etype="pinpart" c_origin="4040,3208" layerid="11" number="5" net="1" plated ="Y"  id="gge735" locked="0" c_rotation="0" c_width="6" c_height="6" title="1" c_shape="ELLIPSE" pasteexpansion="0" solderexpansion="0.4"><ellipse c_etype="pad_shell" cx="4040" cy="3208" rx="3" ry="3" layerid="11" stroke-width="0"/><circle c_etype="pad_hole" cx="4040" cy="3208" r="1.8" layerid="11" stroke-width="0"/></g><g c_partid="part_pad" c_etype="pinpart" c_origin="4166,3155.5" layerid="11" number="5" net="1" plated ="Y"  id="gge762" locked="0" c_rotation="0" c_width="6" c_height="6" title="1" c_shape="ELLIPSE" pasteexpansion="0" solderexpansion="0.4"><ellipse c_etype="pad_shell" cx="4166" cy="3155.5" rx="3" ry="3" layerid="11" stroke-width="0"/><circle c_etype="pad_hole" cx="4166" cy="3155.5" r="1.8" layerid="11" stroke-width="0"/></g><g c_partid="part_pad" c_etype="pinpart" c_origin="4166.5,3198.013" layerid="11" number="5" net="1" plated ="Y"  id="gge787" locked="0" c_rotation="0" c_width="6" c_height="6" title="1" c_shape="ELLIPSE" pasteexpansion="0" solderexpansion="0.4"><ellipse c_etype="pad_shell" cx="4166.5" cy="3198.013" rx="3" ry="3" layerid="11" stroke-width="0"/><circle c_etype="pad_hole" cx="4166.5" cy="3198.013" r="1.8" layerid="11" stroke-width="0"/></g><g c_partid="part_pad" c_etype="pinpart" c_origin="4040,3198" layerid="11" number="5" net="1" plated ="Y"  id="gge799" locked="0" c_rotation="0" c_width="6" c_height="6" title="1" c_shape="ELLIPSE" pasteexpansion="0" solderexpansion="0.4"><ellipse c_etype="pad_shell" cx="4040" cy="3198" rx="3" ry="3" layerid="11" stroke-width="0"/><circle c_etype="pad_hole" cx="4040" cy="3198" r="1.8" layerid="11" stroke-width="0"/></g><g c_partid="part_pad" c_etype="pinpart" c_origin="4100,3158" layerid="11" number="5" net="1" plated ="Y"  id="gge875" locked="0" c_rotation="0" c_width="6" c_height="6" title="1" c_shape="ELLIPSE" pasteexpansion="0" solderexpansion="0.4"><ellipse c_etype="pad_shell" cx="4100" cy="3158" rx="3" ry="3" layerid="11" stroke-width="0"/><circle c_etype="pad_hole" cx="4100" cy="3158" r="1.8" layerid="11" stroke-width="0"/></g><g c_partid="part_pad" c_etype="pinpart" c_origin="4070,3158" layerid="11" number="5" net="1" plated ="Y"  id="gge882" locked="0" c_rotation="0" c_width="6" c_height="6" title="1" c_shape="ELLIPSE" pasteexpansion="0" solderexpansion="0.4"><ellipse c_etype="pad_shell" cx="4070" cy="3158" rx="3" ry="3" layerid="11" stroke-width="0"/><circle c_etype="pad_hole" cx="4070" cy="3158" r="1.8" layerid="11" stroke-width="0"/></g><g c_partid="part_hole" c_etype="pinpart" c_shapetype="group" c_origin="4178.5,3279.5" layerid="11" id="gge835" locked="0" ><circle cx="4178.5" cy="3279.5" r="4"  stroke-width="0" /></g><g c_partid="part_hole" c_etype="pinpart" c_shapetype="group" c_origin="4030,3158.5" layerid="11" id="gge840" locked="0" ><circle cx="4030" cy="3158.5" r="4"  stroke-width="0" /></g><g c_partid="part_hole" c_etype="pinpart" c_shapetype="group" c_origin="4080,3249.5" layerid="11" id="gge845" locked="0" ><circle cx="4080" cy="3249.5" r="4"  stroke-width="0" /></g><g c_partid="part_hole" c_etype="pinpart" c_shapetype="group" c_origin="4110,3208.5" layerid="11" id="gge850" locked="0" ><circle cx="4110" cy="3208.5" r="4"  stroke-width="0" /></g><polyline points="4063.89 3267.97 4071.93 3267.97 4071.93 3252.19 4066.78 3247.03 4063.89 3247.03" stroke-width="0.6"  stroke-linecap="round" fill="none" layerid="3" net="" id="gge14" locked="0" /><polyline points="4059.11 3267.93 4051.19 3267.93 4051.19 3252.1 4056.26 3247.03 4059.11 3247.03" stroke-width="0.6"  stroke-linecap="round" fill="none" layerid="3" net="" id="gge15" locked="0" /><polyline points="4066.9425 3213.8693 4066.9425 3219.4205" stroke-width="0.6"  stroke-linecap="round" fill="none" layerid="3" net="" id="gge41" locked="0" /><polyline points="4074.0575 3219.4205 4074.0575 3213.8693" stroke-width="0.6"  stroke-linecap="round" fill="none" layerid="3" net="" id="gge42" locked="0" /><polyline points="4073.4575 3213.2693 4067.5425 3213.2693" stroke-width="0.6"  stroke-linecap="round" fill="none" layerid="3" net="" id="gge43" locked="0" /><polyline points="4066.9425 3228.1307 4066.9425 3222.5795" stroke-width="0.6"  stroke-linecap="round" fill="none" layerid="3" net="" id="gge44" locked="0" /><polyline points="4074.0575 3222.5795 4074.0575 3228.1307" stroke-width="0.6"  stroke-linecap="round" fill="none" layerid="3" net="" id="gge45" locked="0" /><polyline points="4073.4575 3228.7307 4067.5425 3228.7307" stroke-width="0.6"  stroke-linecap="round" fill="none" layerid="3" net="" id="gge46" locked="0" /><polyline points="4164.537 3210.9988 4164.537 3214.1094" stroke-width="0.6"  stroke-linecap="round" fill="none" layerid="3" net="" id="gge75" locked="0" /><polyline points="4168.463 3214.1094 4168.463 3210.9988" stroke-width="0.6"  stroke-linecap="round" fill="none" layerid="3" net="" id="gge76" locked="0" /><polyline points="4167.863 3210.3988 4165.137 3210.3988" stroke-width="0.6"  stroke-linecap="round" fill="none" layerid="3" net="" id="gge77" locked="0" /><polyline points="4164.537 3219.0012 4164.537 3215.8906" stroke-width="0.6"  stroke-linecap="round" fill="none" layerid="3" net="" id="gge78" locked="0" /><polyline points="4168.463 3215.8906 4168.463 3219.0012" stroke-width="0.6"  stroke-linecap="round" fill="none" layerid="3" net="" id="gge79" locked="0" /><polyline points="4167.863 3219.6012 4165.137 3219.6012" stroke-width="0.6"  stroke-linecap="round" fill="none" layerid="3" net="" id="gge80" locked="0" /><polyline points="4137.4102 3156.4639 4137.4102 3167.5361" stroke-width="0.6"  stroke-linecap="round" fill="none" layerid="3" net="" id="gge110" locked="0" /><polyline points="4137.4102 3167.5361 4136.7488 3167.5361" stroke-width="0.6"  stroke-linecap="round" fill="none" layerid="3" net="" id="gge111" locked="0" /><polyline points="4130.5898 3156.4639 4130.5898 3167.5361" stroke-width="0.6"  stroke-linecap="round" fill="none" layerid="3" net="" id="gge112" locked="0" /><polyline points="4130.5898 3167.5361 4131.2512 3167.5361" stroke-width="0.6"  stroke-linecap="round" fill="none" layerid="3" net="" id="gge113" locked="0" /><polyline points="4137.4102 3157.8689 4130.5898 3157.8689" stroke-width="0.6"  stroke-linecap="round" fill="none" layerid="3" net="" id="gge114" locked="0" /><polyline points="4140.5898 3167.0361 4140.5898 3155.9639" stroke-width="0.6"  stroke-linecap="round" fill="none" layerid="3" net="" id="gge142" locked="0" /><polyline points="4140.5898 3155.9639 4141.2512 3155.9639" stroke-width="0.6"  stroke-linecap="round" fill="none" layerid="3" net="" id="gge143" locked="0" /><polyline points="4147.4102 3167.0361 4147.4102 3155.9639" stroke-width="0.6"  stroke-linecap="round" fill="none" layerid="3" net="" id="gge144" locked="0" /><polyline points="4147.4102 3155.9639 4146.7488 3155.9639" stroke-width="0.6"  stroke-linecap="round" fill="none" layerid="3" net="" id="gge145" locked="0" /><polyline points="4140.5898 3165.6311 4147.4102 3165.6311" stroke-width="0.6"  stroke-linecap="round" fill="none" layerid="3" net="" id="gge146" locked="0" /><polyline points="4117.15 3239.7481 4113.941 3239.7481 4113.941 3237.1499" stroke-width="1"  stroke-linecap="round" fill="none" layerid="3" net="" id="gge171" locked="0" /><polyline points="4120.043 3235.1809 4120.043 3232.8191" stroke-width="0.7874"  stroke-linecap="round" fill="none" layerid="3" net="" id="gge172" locked="0" /><polyline points="4113.941 3230.8501 4113.941 3228.252 4113.941 3230.8501 4113.941 3228.252 4117.15 3228.252" stroke-width="1"  stroke-linecap="round" fill="none" layerid="3" net="" id="gge173" locked="0" /><polyline points="4148.65 3247.2481 4145.441 3247.2481 4145.441 3244.6499" stroke-width="1"  stroke-linecap="round" fill="none" layerid="3" net="" id="gge206" locked="0" /><polyline points="4151.543 3242.6809 4151.543 3240.3191" stroke-width="0.7874"  stroke-linecap="round" fill="none" layerid="3" net="" id="gge207" locked="0" /><polyline points="4145.441 3238.3501 4145.441 3235.752 4145.441 3238.3501 4145.441 3235.752 4148.65 3235.752" stroke-width="1"  stroke-linecap="round" fill="none" layerid="3" net="" id="gge208" locked="0" /><polyline points="4050.8992 3234.178 4050.8992 3237.9531 4056.1008 3237.9531 4056.1008 3234.178" stroke-width="0.6"  stroke-linecap="round" fill="none" layerid="3" net="" id="gge245" locked="0" /><polyline points="4050.8992 3230.822 4050.8992 3227.0469 4056.1008 3227.0469 4056.1008 3230.822" stroke-width="0.6"  stroke-linecap="round" fill="none" layerid="3" net="" id="gge246" locked="0" /><polyline points="4120.8894 3196.3748 4120.8894 3201.4336 4128.1106 3201.4336 4128.1106 3196.3748" stroke-width="0.6"  stroke-linecap="round" fill="none" layerid="3" net="" id="gge269" locked="0" /><polyline points="4120.8894 3192.6252 4120.8894 3187.5664 4128.1106 3187.5664 4128.1106 3192.6252" stroke-width="0.6"  stroke-linecap="round" fill="none" layerid="3" net="" id="gge270" locked="0" /><polyline points="4090.3894 3263.8748 4090.3894 3268.9336 4097.6106 3268.9336 4097.6106 3263.8748" stroke-width="0.6"  stroke-linecap="round" fill="none" layerid="3" net="" id="gge295" locked="0" /><polyline points="4090.3894 3260.1252 4090.3894 3255.0664 4097.6106 3255.0664 4097.6106 3260.1252" stroke-width="0.6"  stroke-linecap="round" fill="none" layerid="3" net="" id="gge296" locked="0" /><polyline points="4090.3894 3222.8748 4090.3894 3227.9336 4097.6106 3227.9336 4097.6106 3222.8748" stroke-width="0.6"  stroke-linecap="round" fill="none" layerid="3" net="" id="gge321" locked="0" /><polyline points="4090.3894 3219.1252 4090.3894 3214.0664 4097.6106 3214.0664 4097.6106 3219.1252" stroke-width="0.6"  stroke-linecap="round" fill="none" layerid="3" net="" id="gge322" locked="0" /><g c_partid="part_pcbtext" c_etype="pinpart" c_origin="4022,3256.5" c_rotation="0" c_mirror="0" id="gge464" locked="0" layerid="3" c_shapetype="group" ><path c_fontsize="3.937" c_fontfamily="" c_text="FUZZ1" d="M 4022 3252.53 L 4022 3256.29 M 4022 3252.53 L 4024.33 3252.53 M 4022 3254.32 L 4023.43 3254.32 M 4025.51 3252.53 L 4025.51 3255.21 L 4025.69 3255.75 L 4026.04 3256.11 L 4026.58 3256.29 L 4026.94 3256.29 L 4027.48 3256.11 L 4027.83 3255.75 L 4028.01 3255.21 L 4028.01 3252.53 M 4031.7 3252.53 L 4029.19 3256.29 M 4029.19 3252.53 L 4031.7 3252.53 M 4029.19 3256.29 L 4031.7 3256.29 M 4035.39 3252.53 L 4032.88 3256.29 M 4032.88 3252.53 L 4035.39 3252.53 M 4032.88 3256.29 L 4035.39 3256.29 M 4036.57 3253.24 L 4036.92 3253.06 L 4037.46 3252.53 L 4037.46 3256.29" fill="none"  stroke-width="0.8"  /></g><g c_partid="part_pcbtext" c_etype="pinpart" c_origin="4021.5,3262.5" c_rotation="0" c_mirror="0" id="gge471" locked="0" layerid="3" c_shapetype="group" ><path c_fontsize="3.937" c_fontfamily="" c_text="FUZZ2" d="M 4021.5 3258.53 L 4021.5 3262.29 M 4021.5 3258.53 L 4023.83 3258.53 M 4021.5 3260.32 L 4022.93 3260.32 M 4025.01 3258.53 L 4025.01 3261.21 L 4025.19 3261.75 L 4025.54 3262.11 L 4026.08 3262.29 L 4026.44 3262.29 L 4026.98 3262.11 L 4027.33 3261.75 L 4027.51 3261.21 L 4027.51 3258.53 M 4031.2 3258.53 L 4028.69 3262.29 M 4028.69 3258.53 L 4031.2 3258.53 M 4028.69 3262.29 L 4031.2 3262.29 M 4034.89 3258.53 L 4032.38 3262.29 M 4032.38 3258.53 L 4034.89 3258.53 M 4032.38 3262.29 L 4034.89 3262.29 M 4036.25 3259.42 L 4036.25 3259.24 L 4036.42 3258.89 L 4036.6 3258.71 L 4036.96 3258.53 L 4037.68 3258.53 L 4038.04 3258.71 L 4038.21 3258.89 L 4038.39 3259.24 L 4038.39 3259.6 L 4038.21 3259.96 L 4037.86 3260.5 L 4036.07 3262.29 L 4038.57 3262.29" fill="none"  stroke-width="0.8"  /></g><g c_partid="part_pcbtext" c_etype="pinpart" c_origin="4022,3283.5" c_rotation="0" c_mirror="0" id="gge475" locked="0" layerid="3" c_shapetype="group" ><path c_fontsize="3.937" c_fontfamily="" c_text="FUZZ3" d="M 4022 3279.53 L 4022 3283.29 M 4022 3279.53 L 4024.33 3279.53 M 4022 3281.32 L 4023.43 3281.32 M 4025.51 3279.53 L 4025.51 3282.21 L 4025.69 3282.75 L 4026.04 3283.11 L 4026.58 3283.29 L 4026.94 3283.29 L 4027.48 3283.11 L 4027.83 3282.75 L 4028.01 3282.21 L 4028.01 3279.53 M 4031.7 3279.53 L 4029.19 3283.29 M 4029.19 3279.53 L 4031.7 3279.53 M 4029.19 3283.29 L 4031.7 3283.29 M 4035.39 3279.53 L 4032.88 3283.29 M 4032.88 3279.53 L 4035.39 3279.53 M 4032.88 3283.29 L 4035.39 3283.29 M 4036.92 3279.53 L 4038.89 3279.53 L 4037.82 3280.96 L 4038.36 3280.96 L 4038.71 3281.14 L 4038.89 3281.32 L 4039.07 3281.85 L 4039.07 3282.21 L 4038.89 3282.75 L 4038.54 3283.11 L 4038 3283.29 L 4037.46 3283.29 L 4036.92 3283.11 L 4036.75 3282.93 L 4036.57 3282.57" fill="none"  stroke-width="0.8"  /></g><g c_partid="part_pcbtext" c_etype="pinpart" c_origin="4038,3225.5" c_rotation="0" c_mirror="0" id="gge487" locked="0" layerid="3" c_shapetype="group" ><path c_fontsize="3.937" c_fontfamily="" c_text="IN" d="M 4038 3221.53 L 4038 3225.29 M 4039.18 3221.53 L 4039.18 3225.29 M 4039.18 3221.53 L 4041.69 3225.29 M 4041.69 3221.53 L 4041.69 3225.29" fill="none"  stroke-width="0.8"  /></g><g c_partid="part_pcbtext" c_etype="pinpart" c_origin="4044.5,3213" c_rotation="0" c_mirror="0" id="gge491" locked="0" layerid="3" c_shapetype="group" ><path c_fontsize="3.937" c_fontfamily="" c_text="GND" d="M 4047.18 3209.92 L 4047.01 3209.56 L 4046.65 3209.21 L 4046.29 3209.03 L 4045.57 3209.03 L 4045.22 3209.21 L 4044.86 3209.56 L 4044.68 3209.92 L 4044.5 3210.46 L 4044.5 3211.35 L 4044.68 3211.89 L 4044.86 3212.25 L 4045.22 3212.61 L 4045.57 3212.79 L 4046.29 3212.79 L 4046.65 3212.61 L 4047.01 3212.25 L 4047.18 3211.89 L 4047.18 3211.35 M 4046.29 3211.35 L 4047.18 3211.35 M 4048.37 3209.03 L 4048.37 3212.79 M 4048.37 3209.03 L 4050.87 3212.79 M 4050.87 3209.03 L 4050.87 3212.79 M 4052.05 3209.03 L 4052.05 3212.79 M 4052.05 3209.03 L 4053.3 3209.03 L 4053.84 3209.21 L 4054.2 3209.56 L 4054.38 3209.92 L 4054.56 3210.46 L 4054.56 3211.35 L 4054.38 3211.89 L 4054.2 3212.25 L 4053.84 3212.61 L 4053.3 3212.79 L 4052.05 3212.79" fill="none"  stroke-width="0.8"  /></g><g c_partid="part_pcbtext" c_etype="pinpart" c_origin="4043.5,3205.5" c_rotation="0" c_mirror="0" id="gge495" locked="0" layerid="3" c_shapetype="group" ><path c_fontsize="3.937" c_fontfamily="" c_text="-9V" d="M 4043.5 3203.67 L 4046.72 3203.67 M 4050.23 3202.78 L 4050.05 3203.32 L 4049.69 3203.67 L 4049.15 3203.85 L 4048.98 3203.85 L 4048.44 3203.67 L 4048.08 3203.32 L 4047.9 3202.78 L 4047.9 3202.6 L 4048.08 3202.06 L 4048.44 3201.71 L 4048.98 3201.53 L 4049.15 3201.53 L 4049.69 3201.71 L 4050.05 3202.06 L 4050.23 3202.78 L 4050.23 3203.67 L 4050.05 3204.57 L 4049.69 3205.11 L 4049.15 3205.29 L 4048.8 3205.29 L 4048.26 3205.11 L 4048.08 3204.75 M 4051.41 3201.53 L 4052.84 3205.29 M 4054.27 3201.53 L 4052.84 3205.29" fill="none"  stroke-width="0.8"  /></g><g c_partid="part_pcbtext" c_etype="pinpart" c_origin="4170,3157" c_rotation="0" c_mirror="0" id="gge777" locked="0" layerid="3" c_shapetype="group" ><path c_fontsize="3.937" c_fontfamily="" c_text="LEVEL1" d="M 4170 3153.03 L 4170 3156.79 M 4170 3156.79 L 4172.15 3156.79 M 4173.33 3153.03 L 4173.33 3156.79 M 4173.33 3153.03 L 4175.65 3153.03 M 4173.33 3154.82 L 4174.76 3154.82 M 4173.33 3156.79 L 4175.65 3156.79 M 4176.84 3153.03 L 4178.27 3156.79 M 4179.7 3153.03 L 4178.27 3156.79 M 4180.88 3153.03 L 4180.88 3156.79 M 4180.88 3153.03 L 4183.21 3153.03 M 4180.88 3154.82 L 4182.31 3154.82 M 4180.88 3156.79 L 4183.21 3156.79 M 4184.39 3153.03 L 4184.39 3156.79 M 4184.39 3156.79 L 4186.54 3156.79 M 4187.72 3153.74 L 4188.07 3153.56 L 4188.61 3153.03 L 4188.61 3156.79" fill="none"  stroke-width="0.8"  /></g><g c_partid="part_pcbtext" c_etype="pinpart" c_origin="4141.5,3200.5" c_rotation="0" c_mirror="0" id="gge792" locked="0" layerid="3" c_shapetype="group" ><path c_fontsize="3.937" c_fontfamily="" c_text="LEVEL3" d="M 4141.5 3196.53 L 4141.5 3200.29 M 4141.5 3200.29 L 4143.65 3200.29 M 4144.83 3196.53 L 4144.83 3200.29 M 4144.83 3196.53 L 4147.15 3196.53 M 4144.83 3198.32 L 4146.26 3198.32 M 4144.83 3200.29 L 4147.15 3200.29 M 4148.34 3196.53 L 4149.77 3200.29 M 4151.2 3196.53 L 4149.77 3200.29 M 4152.38 3196.53 L 4152.38 3200.29 M 4152.38 3196.53 L 4154.71 3196.53 M 4152.38 3198.32 L 4153.81 3198.32 M 4152.38 3200.29 L 4154.71 3200.29 M 4155.89 3196.53 L 4155.89 3200.29 M 4155.89 3200.29 L 4158.04 3200.29 M 4159.57 3196.53 L 4161.54 3196.53 L 4160.47 3197.96 L 4161.01 3197.96 L 4161.36 3198.14 L 4161.54 3198.32 L 4161.72 3198.85 L 4161.72 3199.21 L 4161.54 3199.75 L 4161.19 3200.11 L 4160.65 3200.29 L 4160.11 3200.29 L 4159.57 3200.11 L 4159.4 3199.93 L 4159.22 3199.57" fill="none"  stroke-width="0.8"  /></g><g c_partid="part_pcbtext" c_etype="pinpart" c_origin="4115.5,3283.5" c_rotation="0" c_mirror="0" id="gge858" locked="0" layerid="3" c_shapetype="group" ><path c_fontsize="3.937" c_fontfamily="" c_text="Pierre Guichard" d="M 4115.5 3279.53 L 4115.5 3283.29 M 4115.5 3279.53 L 4117.11 3279.53 L 4117.65 3279.71 L 4117.83 3279.89 L 4118.01 3280.24 L 4118.01 3280.78 L 4117.83 3281.14 L 4117.65 3281.32 L 4117.11 3281.5 L 4115.5 3281.5 M 4119.19 3279.53 L 4119.37 3279.71 L 4119.54 3279.53 L 4119.37 3279.35 L 4119.19 3279.53 M 4119.37 3280.78 L 4119.37 3283.29 M 4120.73 3281.85 L 4122.87 3281.85 L 4122.87 3281.5 L 4122.69 3281.14 L 4122.52 3280.96 L 4122.16 3280.78 L 4121.62 3280.78 L 4121.26 3280.96 L 4120.9 3281.32 L 4120.73 3281.85 L 4120.73 3282.21 L 4120.9 3282.75 L 4121.26 3283.11 L 4121.62 3283.29 L 4122.16 3283.29 L 4122.52 3283.11 L 4122.87 3282.75 M 4124.05 3280.78 L 4124.05 3283.29 M 4124.05 3281.85 L 4124.23 3281.32 L 4124.59 3280.96 L 4124.95 3280.78 L 4125.49 3280.78 M 4126.67 3280.78 L 4126.67 3283.29 M 4126.67 3281.85 L 4126.85 3281.32 L 4127.2 3280.96 L 4127.56 3280.78 L 4128.1 3280.78 M 4129.28 3281.85 L 4131.43 3281.85 L 4131.43 3281.5 L 4131.25 3281.14 L 4131.07 3280.96 L 4130.71 3280.78 L 4130.17 3280.78 L 4129.82 3280.96 L 4129.46 3281.32 L 4129.28 3281.85 L 4129.28 3282.21 L 4129.46 3282.75 L 4129.82 3283.11 L 4130.17 3283.29 L 4130.71 3283.29 L 4131.07 3283.11 L 4131.43 3282.75 M 4138.05 3280.42 L 4137.87 3280.06 L 4137.51 3279.71 L 4137.15 3279.53 L 4136.44 3279.53 L 4136.08 3279.71 L 4135.72 3280.06 L 4135.54 3280.42 L 4135.36 3280.96 L 4135.36 3281.85 L 4135.54 3282.39 L 4135.72 3282.75 L 4136.08 3283.11 L 4136.44 3283.29 L 4137.15 3283.29 L 4137.51 3283.11 L 4137.87 3282.75 L 4138.05 3282.39 L 4138.05 3281.85 M 4137.15 3281.85 L 4138.05 3281.85 M 4139.23 3280.78 L 4139.23 3282.57 L 4139.41 3283.11 L 4139.77 3283.29 L 4140.3 3283.29 L 4140.66 3283.11 L 4141.2 3282.57 M 4141.2 3280.78 L 4141.2 3283.29 M 4142.38 3279.53 L 4142.56 3279.71 L 4142.74 3279.53 L 4142.56 3279.35 L 4142.38 3279.53 M 4142.56 3280.78 L 4142.56 3283.29 M 4146.07 3281.32 L 4145.71 3280.96 L 4145.35 3280.78 L 4144.81 3280.78 L 4144.45 3280.96 L 4144.1 3281.32 L 4143.92 3281.85 L 4143.92 3282.21 L 4144.1 3282.75 L 4144.45 3283.11 L 4144.81 3283.29 L 4145.35 3283.29 L 4145.71 3283.11 L 4146.07 3282.75 M 4147.25 3279.53 L 4147.25 3283.29 M 4147.25 3281.5 L 4147.78 3280.96 L 4148.14 3280.78 L 4148.68 3280.78 L 4149.04 3280.96 L 4149.22 3281.5 L 4149.22 3283.29 M 4152.54 3280.78 L 4152.54 3283.29 M 4152.54 3281.32 L 4152.19 3280.96 L 4151.83 3280.78 L 4151.29 3280.78 L 4150.93 3280.96 L 4150.58 3281.32 L 4150.4 3281.85 L 4150.4 3282.21 L 4150.58 3282.75 L 4150.93 3283.11 L 4151.29 3283.29 L 4151.83 3283.29 L 4152.19 3283.11 L 4152.54 3282.75 M 4153.72 3280.78 L 4153.72 3283.29 M 4153.72 3281.85 L 4153.9 3281.32 L 4154.26 3280.96 L 4154.62 3280.78 L 4155.16 3280.78 M 4158.48 3279.53 L 4158.48 3283.29 M 4158.48 3281.32 L 4158.13 3280.96 L 4157.77 3280.78 L 4157.23 3280.78 L 4156.87 3280.96 L 4156.52 3281.32 L 4156.34 3281.85 L 4156.34 3282.21 L 4156.52 3282.75 L 4156.87 3283.11 L 4157.23 3283.29 L 4157.77 3283.29 L 4158.13 3283.11 L 4158.48 3282.75" fill="none"  stroke-width="0.7874"  /></g><g c_partid="part_pcbtext" c_etype="pinpart" c_origin="4170.5,3257.5" c_rotation="0" c_mirror="0" id="gge861" locked="0" layerid="3" c_shapetype="group" ><path c_fontsize="3.937" c_fontfamily="" c_text="2022" d="M 4170.68 3254.42 L 4170.68 3254.24 L 4170.86 3253.89 L 4171.04 3253.71 L 4171.39 3253.53 L 4172.11 3253.53 L 4172.47 3253.71 L 4172.65 3253.89 L 4172.83 3254.24 L 4172.83 3254.6 L 4172.65 3254.96 L 4172.29 3255.5 L 4170.5 3257.29 L 4173.01 3257.29 M 4175.26 3253.53 L 4174.72 3253.71 L 4174.37 3254.24 L 4174.19 3255.14 L 4174.19 3255.67 L 4174.37 3256.57 L 4174.72 3257.11 L 4175.26 3257.29 L 4175.62 3257.29 L 4176.15 3257.11 L 4176.51 3256.57 L 4176.69 3255.67 L 4176.69 3255.14 L 4176.51 3254.24 L 4176.15 3253.71 L 4175.62 3253.53 L 4175.26 3253.53 M 4178.05 3254.42 L 4178.05 3254.24 L 4178.23 3253.89 L 4178.41 3253.71 L 4178.77 3253.53 L 4179.48 3253.53 L 4179.84 3253.71 L 4180.02 3253.89 L 4180.2 3254.24 L 4180.2 3254.6 L 4180.02 3254.96 L 4179.66 3255.5 L 4177.87 3257.29 L 4180.38 3257.29 M 4181.74 3254.42 L 4181.74 3254.24 L 4181.92 3253.89 L 4182.1 3253.71 L 4182.45 3253.53 L 4183.17 3253.53 L 4183.53 3253.71 L 4183.71 3253.89 L 4183.89 3254.24 L 4183.89 3254.6 L 4183.71 3254.96 L 4183.35 3255.5 L 4181.56 3257.29 L 4184.06 3257.29" fill="none"  stroke-width="0.7874"  /></g><g c_partid="part_pcbtext" c_etype="pinpart" c_origin="4115.5,3271.5" c_rotation="0" c_mirror="0" id="gge864" locked="0" layerid="3" c_shapetype="group" ><path c_fontsize="3.937" c_fontfamily="" c_text="Screamin Baby Amplifiers" d="M 4118.01 3268.06 L 4117.65 3267.71 L 4117.11 3267.53 L 4116.39 3267.53 L 4115.86 3267.71 L 4115.5 3268.06 L 4115.5 3268.42 L 4115.68 3268.78 L 4115.86 3268.96 L 4116.22 3269.14 L 4117.29 3269.5 L 4117.65 3269.67 L 4117.83 3269.85 L 4118.01 3270.21 L 4118.01 3270.75 L 4117.65 3271.11 L 4117.11 3271.29 L 4116.39 3271.29 L 4115.86 3271.11 L 4115.5 3270.75 M 4121.33 3269.32 L 4120.98 3268.96 L 4120.62 3268.78 L 4120.08 3268.78 L 4119.72 3268.96 L 4119.37 3269.32 L 4119.19 3269.85 L 4119.19 3270.21 L 4119.37 3270.75 L 4119.72 3271.11 L 4120.08 3271.29 L 4120.62 3271.29 L 4120.98 3271.11 L 4121.33 3270.75 M 4122.52 3268.78 L 4122.52 3271.29 M 4122.52 3269.85 L 4122.69 3269.32 L 4123.05 3268.96 L 4123.41 3268.78 L 4123.95 3268.78 M 4125.13 3269.85 L 4127.28 3269.85 L 4127.28 3269.5 L 4127.1 3269.14 L 4126.92 3268.96 L 4126.56 3268.78 L 4126.02 3268.78 L 4125.66 3268.96 L 4125.31 3269.32 L 4125.13 3269.85 L 4125.13 3270.21 L 4125.31 3270.75 L 4125.66 3271.11 L 4126.02 3271.29 L 4126.56 3271.29 L 4126.92 3271.11 L 4127.28 3270.75 M 4130.6 3268.78 L 4130.6 3271.29 M 4130.6 3269.32 L 4130.25 3268.96 L 4129.89 3268.78 L 4129.35 3268.78 L 4128.99 3268.96 L 4128.64 3269.32 L 4128.46 3269.85 L 4128.46 3270.21 L 4128.64 3270.75 L 4128.99 3271.11 L 4129.35 3271.29 L 4129.89 3271.29 L 4130.25 3271.11 L 4130.6 3270.75 M 4131.78 3268.78 L 4131.78 3271.29 M 4131.78 3269.5 L 4132.32 3268.96 L 4132.68 3268.78 L 4133.22 3268.78 L 4133.57 3268.96 L 4133.75 3269.5 L 4133.75 3271.29 M 4133.75 3269.5 L 4134.29 3268.96 L 4134.65 3268.78 L 4135.19 3268.78 L 4135.54 3268.96 L 4135.72 3269.5 L 4135.72 3271.29 M 4136.9 3267.53 L 4137.08 3267.71 L 4137.26 3267.53 L 4137.08 3267.35 L 4136.9 3267.53 M 4137.08 3268.78 L 4137.08 3271.29 M 4138.44 3268.78 L 4138.44 3271.29 M 4138.44 3269.5 L 4138.98 3268.96 L 4139.34 3268.78 L 4139.87 3268.78 L 4140.23 3268.96 L 4140.41 3269.5 L 4140.41 3271.29 M 4144.35 3267.53 L 4144.35 3271.29 M 4144.35 3267.53 L 4145.96 3267.53 L 4146.49 3267.71 L 4146.67 3267.89 L 4146.85 3268.24 L 4146.85 3268.6 L 4146.67 3268.96 L 4146.49 3269.14 L 4145.96 3269.32 M 4144.35 3269.32 L 4145.96 3269.32 L 4146.49 3269.5 L 4146.67 3269.67 L 4146.85 3270.03 L 4146.85 3270.57 L 4146.67 3270.93 L 4146.49 3271.11 L 4145.96 3271.29 L 4144.35 3271.29 M 4150.18 3268.78 L 4150.18 3271.29 M 4150.18 3269.32 L 4149.82 3268.96 L 4149.47 3268.78 L 4148.93 3268.78 L 4148.57 3268.96 L 4148.21 3269.32 L 4148.03 3269.85 L 4148.03 3270.21 L 4148.21 3270.75 L 4148.57 3271.11 L 4148.93 3271.29 L 4149.47 3271.29 L 4149.82 3271.11 L 4150.18 3270.75 M 4151.36 3267.53 L 4151.36 3271.29 M 4151.36 3269.32 L 4151.72 3268.96 L 4152.08 3268.78 L 4152.62 3268.78 L 4152.97 3268.96 L 4153.33 3269.32 L 4153.51 3269.85 L 4153.51 3270.21 L 4153.33 3270.75 L 4152.97 3271.11 L 4152.62 3271.29 L 4152.08 3271.29 L 4151.72 3271.11 L 4151.36 3270.75 M 4154.87 3268.78 L 4155.94 3271.29 M 4157.02 3268.78 L 4155.94 3271.29 L 4155.59 3272 L 4155.23 3272.36 L 4154.87 3272.54 L 4154.69 3272.54 M 4162.39 3267.53 L 4160.95 3271.29 M 4162.39 3267.53 L 4163.82 3271.29 M 4161.49 3270.03 L 4163.28 3270.03 M 4165 3268.78 L 4165 3271.29 M 4165 3269.5 L 4165.54 3268.96 L 4165.89 3268.78 L 4166.43 3268.78 L 4166.79 3268.96 L 4166.97 3269.5 L 4166.97 3271.29 M 4166.97 3269.5 L 4167.5 3268.96 L 4167.86 3268.78 L 4168.4 3268.78 L 4168.76 3268.96 L 4168.94 3269.5 L 4168.94 3271.29 M 4170.12 3268.78 L 4170.12 3272.54 M 4170.12 3269.32 L 4170.47 3268.96 L 4170.83 3268.78 L 4171.37 3268.78 L 4171.73 3268.96 L 4172.09 3269.32 L 4172.26 3269.85 L 4172.26 3270.21 L 4172.09 3270.75 L 4171.73 3271.11 L 4171.37 3271.29 L 4170.83 3271.29 L 4170.47 3271.11 L 4170.12 3270.75 M 4173.45 3267.53 L 4173.45 3271.29 M 4174.63 3267.53 L 4174.81 3267.71 L 4174.98 3267.53 L 4174.81 3267.35 L 4174.63 3267.53 M 4174.81 3268.78 L 4174.81 3271.29 M 4177.6 3267.53 L 4177.24 3267.53 L 4176.88 3267.71 L 4176.7 3268.24 L 4176.7 3271.29 M 4176.17 3268.78 L 4177.42 3268.78 M 4178.78 3267.53 L 4178.96 3267.71 L 4179.14 3267.53 L 4178.96 3267.35 L 4178.78 3267.53 M 4178.96 3268.78 L 4178.96 3271.29 M 4180.32 3269.85 L 4182.46 3269.85 L 4182.46 3269.5 L 4182.29 3269.14 L 4182.11 3268.96 L 4181.75 3268.78 L 4181.21 3268.78 L 4180.85 3268.96 L 4180.5 3269.32 L 4180.32 3269.85 L 4180.32 3270.21 L 4180.5 3270.75 L 4180.85 3271.11 L 4181.21 3271.29 L 4181.75 3271.29 L 4182.11 3271.11 L 4182.46 3270.75 M 4183.65 3268.78 L 4183.65 3271.29 M 4183.65 3269.85 L 4183.82 3269.32 L 4184.18 3268.96 L 4184.54 3268.78 L 4185.08 3268.78 M 4188.23 3269.32 L 4188.05 3268.96 L 4187.51 3268.78 L 4186.97 3268.78 L 4186.44 3268.96 L 4186.26 3269.32 L 4186.44 3269.67 L 4186.8 3269.85 L 4187.69 3270.03 L 4188.05 3270.21 L 4188.23 3270.57 L 4188.23 3270.75 L 4188.05 3271.11 L 4187.51 3271.29 L 4186.97 3271.29 L 4186.44 3271.11 L 4186.26 3270.75" fill="none"  stroke-width="0.7874"  /></g><g c_partid="part_pcbtext" c_etype="pinpart" c_origin="4115.5,3277.5" c_rotation="0" c_mirror="0" id="gge868" locked="0" layerid="3" c_shapetype="group" ><path c_fontsize="3.937" c_fontfamily="" c_text="Flower Power" d="M 4115.5 3273.53 L 4115.5 3277.29 M 4115.5 3273.53 L 4117.83 3273.53 M 4115.5 3275.32 L 4116.93 3275.32 M 4119.01 3273.53 L 4119.01 3277.29 M 4121.08 3274.78 L 4120.73 3274.96 L 4120.37 3275.32 L 4120.19 3275.85 L 4120.19 3276.21 L 4120.37 3276.75 L 4120.73 3277.11 L 4121.08 3277.29 L 4121.62 3277.29 L 4121.98 3277.11 L 4122.34 3276.75 L 4122.52 3276.21 L 4122.52 3275.85 L 4122.34 3275.32 L 4121.98 3274.96 L 4121.62 3274.78 L 4121.08 3274.78 M 4123.7 3274.78 L 4124.41 3277.29 M 4125.13 3274.78 L 4124.41 3277.29 M 4125.13 3274.78 L 4125.84 3277.29 M 4126.56 3274.78 L 4125.84 3277.29 M 4127.74 3275.85 L 4129.89 3275.85 L 4129.89 3275.5 L 4129.71 3275.14 L 4129.53 3274.96 L 4129.17 3274.78 L 4128.64 3274.78 L 4128.28 3274.96 L 4127.92 3275.32 L 4127.74 3275.85 L 4127.74 3276.21 L 4127.92 3276.75 L 4128.28 3277.11 L 4128.64 3277.29 L 4129.17 3277.29 L 4129.53 3277.11 L 4129.89 3276.75 M 4131.07 3274.78 L 4131.07 3277.29 M 4131.07 3275.85 L 4131.25 3275.32 L 4131.61 3274.96 L 4131.96 3274.78 L 4132.5 3274.78 M 4136.44 3273.53 L 4136.44 3277.29 M 4136.44 3273.53 L 4138.05 3273.53 L 4138.59 3273.71 L 4138.76 3273.89 L 4138.94 3274.24 L 4138.94 3274.78 L 4138.76 3275.14 L 4138.59 3275.32 L 4138.05 3275.5 L 4136.44 3275.5 M 4141.02 3274.78 L 4140.66 3274.96 L 4140.3 3275.32 L 4140.12 3275.85 L 4140.12 3276.21 L 4140.3 3276.75 L 4140.66 3277.11 L 4141.02 3277.29 L 4141.56 3277.29 L 4141.91 3277.11 L 4142.27 3276.75 L 4142.45 3276.21 L 4142.45 3275.85 L 4142.27 3275.32 L 4141.91 3274.96 L 4141.56 3274.78 L 4141.02 3274.78 M 4143.63 3274.78 L 4144.35 3277.29 M 4145.06 3274.78 L 4144.35 3277.29 M 4145.06 3274.78 L 4145.78 3277.29 M 4146.49 3274.78 L 4145.78 3277.29 M 4147.68 3275.85 L 4149.82 3275.85 L 4149.82 3275.5 L 4149.64 3275.14 L 4149.47 3274.96 L 4149.11 3274.78 L 4148.57 3274.78 L 4148.21 3274.96 L 4147.85 3275.32 L 4147.68 3275.85 L 4147.68 3276.21 L 4147.85 3276.75 L 4148.21 3277.11 L 4148.57 3277.29 L 4149.11 3277.29 L 4149.47 3277.11 L 4149.82 3276.75 M 4151 3274.78 L 4151 3277.29 M 4151 3275.85 L 4151.18 3275.32 L 4151.54 3274.96 L 4151.9 3274.78 L 4152.44 3274.78" fill="none"  stroke-width="0.7874"  /></g><g c_partid="part_pcbtext" c_etype="pinpart" c_origin="4090,3168" c_rotation="0" c_mirror="0" id="gge887" locked="0" layerid="3" c_shapetype="group" ><path c_fontsize="3.937" c_fontfamily="" c_text="LEVEL2" d="M 4090 3164.03L4090 3167.79 M 4090 3167.79L4092.15 3167.79 M 4093.33 3164.03L4093.33 3167.79 M 4093.33 3164.03L4095.65 3164.03 M 4093.33 3165.82L4094.76 3165.82 M 4093.33 3167.79L4095.65 3167.79 M 4096.84 3164.03L4098.27 3167.79 M 4099.7 3164.03L4098.27 3167.79 M 4100.88 3164.03L4100.88 3167.79 M 4100.88 3164.03L4103.21 3164.03 M 4100.88 3165.82L4102.31 3165.82 M 4100.88 3167.79L4103.21 3167.79 M 4104.39 3164.03L4104.39 3167.79 M 4104.39 3167.79L4106.54 3167.79 M 4107.9 3164.92L4107.9 3164.74 L4108.07 3164.39 L4108.25 3164.21 L4108.61 3164.03 L4109.33 3164.03 L4109.69 3164.21 L4109.86 3164.39 L4110.04 3164.74 L4110.04 3165.1 L4109.86 3165.46 L4109.51 3166 L4107.72 3167.79 L4110.22 3167.79 " fill="none"  stroke-width="0.8"  /></g><g c_partid="part_pcbtext" c_etype="pinpart" c_origin="4061,3167.5" c_rotation="0" c_mirror="0" id="gge891" locked="0" layerid="3" c_shapetype="group" ><path c_fontsize="3.937" c_fontfamily="" c_text="OUT" d="M 4062.07 3163.53 L 4061.72 3163.71 L 4061.36 3164.06 L 4061.18 3164.42 L 4061 3164.96 L 4061 3165.85 L 4061.18 3166.39 L 4061.36 3166.75 L 4061.72 3167.11 L 4062.07 3167.29 L 4062.79 3167.29 L 4063.15 3167.11 L 4063.51 3166.75 L 4063.68 3166.39 L 4063.86 3165.85 L 4063.86 3164.96 L 4063.68 3164.42 L 4063.51 3164.06 L 4063.15 3163.71 L 4062.79 3163.53 L 4062.07 3163.53 M 4065.04 3163.53 L 4065.04 3166.21 L 4065.22 3166.75 L 4065.58 3167.11 L 4066.12 3167.29 L 4066.48 3167.29 L 4067.01 3167.11 L 4067.37 3166.75 L 4067.55 3166.21 L 4067.55 3163.53 M 4069.98 3163.53 L 4069.98 3167.29 M 4068.73 3163.53 L 4071.24 3163.53" fill="none"  stroke-width="0.8"  /></g><g c_partid="part_pcbtext" c_etype="" c_origin="4049,3265.5" c_rotation="90" c_mirror="0" id="gge3" locked="0" layerid="3" c_shapetype="group" ><path c_fontsize="4.5" c_fontfamily="" c_text="10uF" d="M 4045.28 3265.5 L 4045.07 3265.09 L 4044.46 3264.48 L 4048.75 3264.48 M 4044.46 3261.9 L 4044.66 3262.51 L 4045.28 3262.92 L 4046.3 3263.13 L 4046.91 3263.13 L 4047.94 3262.92 L 4048.55 3262.51 L 4048.75 3261.9 L 4048.75 3261.49 L 4048.55 3260.88 L 4047.94 3260.47 L 4046.91 3260.26 L 4046.3 3260.26 L 4045.28 3260.47 L 4044.66 3260.88 L 4044.46 3261.49 L 4044.46 3261.9 M 4045.89 3258.91 L 4047.94 3258.91 L 4048.55 3258.71 L 4048.75 3258.3 L 4048.75 3257.69 L 4048.55 3257.28 L 4047.94 3256.66 M 4045.89 3256.66 L 4048.75 3256.66 M 4044.46 3255.31 L 4048.75 3255.31 M 4044.46 3255.31 L 4044.46 3252.65 M 4046.5 3255.31 L 4046.5 3253.68" fill="none"  stroke-width="0.6" c_note="note_name" /></g><g c_partid="part_pcbtext" c_etype="" c_origin="4073.5,3257.5" c_rotation="270" c_mirror="0" id="gge5" locked="0" layerid="3" c_shapetype="group" display="none"><path c_fontsize="4.5" c_fontfamily="" c_text="C1" d="M 4077.02 3260.57 L 4077.43 3260.36 L 4077.84 3259.95 L 4078.04 3259.55 L 4078.04 3258.73 L 4077.84 3258.32 L 4077.43 3257.91 L 4077.02 3257.7 L 4076.4 3257.5 L 4075.38 3257.5 L 4074.77 3257.7 L 4074.36 3257.91 L 4073.95 3258.32 L 4073.75 3258.73 L 4073.75 3259.55 L 4073.95 3259.95 L 4074.36 3260.36 L 4074.77 3260.57 M 4077.22 3261.92 L 4077.43 3262.33 L 4078.04 3262.94 L 4073.75 3262.94" fill="none"  stroke-width="0.6" c_note="note_pre" /></g><g c_partid="part_pcbtext" c_etype="" c_origin="4080,3223.5" c_rotation="90" c_mirror="0" id="gge33" locked="0" layerid="3" c_shapetype="group" ><path c_fontsize="4.5" c_fontfamily="" c_text="1uF" d="M 4076.28 3223.5 L 4076.07 3223.09 L 4075.46 3222.48 L 4079.75 3222.48 M 4076.89 3221.13 L 4078.94 3221.13 L 4079.55 3220.92 L 4079.75 3220.51 L 4079.75 3219.9 L 4079.55 3219.49 L 4078.94 3218.88 M 4076.89 3218.88 L 4079.75 3218.88 M 4075.46 3217.53 L 4079.75 3217.53 M 4075.46 3217.53 L 4075.46 3214.87 M 4077.5 3217.53 L 4077.5 3215.89" fill="none"  stroke-width="0.6" c_note="note_name" /></g><g c_partid="part_pcbtext" c_etype="" c_origin="4065.5,3221" c_rotation="90" c_mirror="0" id="gge35" locked="0" layerid="3" c_shapetype="group" display="none"><path c_fontsize="4.5" c_fontfamily="" c_text="C2" d="M 4061.98 3217.93 L 4061.57 3218.14 L 4061.16 3218.55 L 4060.96 3218.95 L 4060.96 3219.77 L 4061.16 3220.18 L 4061.57 3220.59 L 4061.98 3220.8 L 4062.6 3221 L 4063.62 3221 L 4064.23 3220.8 L 4064.64 3220.59 L 4065.05 3220.18 L 4065.25 3219.77 L 4065.25 3218.95 L 4065.05 3218.55 L 4064.64 3218.14 L 4064.23 3217.93 M 4061.98 3216.38 L 4061.78 3216.38 L 4061.37 3216.17 L 4061.16 3215.97 L 4060.96 3215.56 L 4060.96 3214.74 L 4061.16 3214.33 L 4061.37 3214.13 L 4061.78 3213.92 L 4062.19 3213.92 L 4062.6 3214.13 L 4063.21 3214.54 L 4065.25 3216.58 L 4065.25 3213.72" fill="none"  stroke-width="0.6" c_note="note_pre" /></g><g c_partid="part_pcbtext" c_etype="" c_origin="4161.96,3223.101" c_rotation="90" c_mirror="0" id="gge67" locked="0" layerid="3" c_shapetype="group" ><path c_fontsize="4.5" c_fontfamily="" c_text="100nF" d="M 4158.24 3223.1013 L 4158.03 3222.6913 L 4157.42 3222.0813 L 4161.71 3222.0813 M 4157.42 3219.5013 L 4157.62 3220.1113 L 4158.24 3220.5213 L 4159.26 3220.7313 L 4159.87 3220.7313 L 4160.9 3220.5213 L 4161.51 3220.1113 L 4161.71 3219.5013 L 4161.71 3219.0913 L 4161.51 3218.4813 L 4160.9 3218.0713 L 4159.87 3217.8613 L 4159.26 3217.8613 L 4158.24 3218.0713 L 4157.62 3218.4813 L 4157.42 3219.0913 L 4157.42 3219.5013 M 4157.42 3215.2913 L 4157.62 3215.9013 L 4158.24 3216.3113 L 4159.26 3216.5113 L 4159.87 3216.5113 L 4160.9 3216.3113 L 4161.51 3215.9013 L 4161.71 3215.2913 L 4161.71 3214.8813 L 4161.51 3214.2613 L 4160.9 3213.8513 L 4159.87 3213.6513 L 4159.26 3213.6513 L 4158.24 3213.8513 L 4157.62 3214.2613 L 4157.42 3214.8813 L 4157.42 3215.2913 M 4158.85 3212.3013 L 4161.71 3212.3013 M 4159.67 3212.3013 L 4159.06 3211.6913 L 4158.85 3211.2813 L 4158.85 3210.6613 L 4159.06 3210.2513 L 4159.67 3210.0513 L 4161.71 3210.0513 M 4157.42 3208.7013 L 4161.71 3208.7013 M 4157.42 3208.7013 L 4157.42 3206.0413 M 4159.46 3208.7013 L 4159.46 3207.0613" fill="none"  stroke-width="0.6" c_note="note_name" /></g><g c_partid="part_pcbtext" c_etype="" c_origin="4163.5,3215" c_rotation="90" c_mirror="0" id="gge69" locked="0" layerid="3" c_shapetype="group" display="none"><path c_fontsize="4.5" c_fontfamily="" c_text="C3" d="M 4159.98 3211.93 L 4159.57 3212.14 L 4159.16 3212.55 L 4158.96 3212.95 L 4158.96 3213.77 L 4159.16 3214.18 L 4159.57 3214.59 L 4159.98 3214.8 L 4160.6 3215 L 4161.62 3215 L 4162.23 3214.8 L 4162.64 3214.59 L 4163.05 3214.18 L 4163.25 3213.77 L 4163.25 3212.95 L 4163.05 3212.55 L 4162.64 3212.14 L 4162.23 3211.93 M 4158.96 3210.17 L 4158.96 3207.92 L 4160.6 3209.15 L 4160.6 3208.54 L 4160.8 3208.13 L 4161 3207.92 L 4161.62 3207.72 L 4162.03 3207.72 L 4162.64 3207.92 L 4163.05 3208.33 L 4163.25 3208.95 L 4163.25 3209.56 L 4163.05 3210.17 L 4162.85 3210.38 L 4162.44 3210.58" fill="none"  stroke-width="0.6" c_note="note_pre" /></g><g c_partid="part_pcbtext" c_etype="" c_origin="4142.5,3193" c_rotation="90" c_mirror="0" id="gge101" locked="0" layerid="3" c_shapetype="group" ><path c_fontsize="4.5" c_fontfamily="" c_text="1N4148" d="M 4138.78 3193 L 4138.57 3192.59 L 4137.96 3191.98 L 4142.25 3191.98 M 4137.96 3190.63 L 4142.25 3190.63 M 4137.96 3190.63 L 4142.25 3187.76 M 4137.96 3187.76 L 4142.25 3187.76 M 4137.96 3184.37 L 4140.82 3186.41 L 4140.82 3183.35 M 4137.96 3184.37 L 4142.25 3184.37 M 4138.78 3182 L 4138.57 3181.59 L 4137.96 3180.97 L 4142.25 3180.97 M 4137.96 3177.58 L 4140.82 3179.62 L 4140.82 3176.55 M 4137.96 3177.58 L 4142.25 3177.58 M 4137.96 3174.18 L 4138.16 3174.8 L 4138.57 3175 L 4138.98 3175 L 4139.39 3174.8 L 4139.6 3174.39 L 4139.8 3173.57 L 4140 3172.95 L 4140.41 3172.55 L 4140.82 3172.34 L 4141.44 3172.34 L 4141.85 3172.55 L 4142.05 3172.75 L 4142.25 3173.36 L 4142.25 3174.18 L 4142.05 3174.8 L 4141.85 3175 L 4141.44 3175.2 L 4140.82 3175.2 L 4140.41 3175 L 4140 3174.59 L 4139.8 3173.98 L 4139.6 3173.16 L 4139.39 3172.75 L 4138.98 3172.55 L 4138.57 3172.55 L 4138.16 3172.75 L 4137.96 3173.36 L 4137.96 3174.18" fill="none"  stroke-width="0.6" c_note="note_name" /></g><g c_partid="part_pcbtext" c_etype="" c_origin="4139,3162" c_rotation="270" c_mirror="0" id="gge103" locked="0" layerid="3" c_shapetype="group" display="none"><path c_fontsize="4.5" c_fontfamily="" c_text="D1" d="M 4143.54 3162 L 4139.25 3162 M 4143.54 3162 L 4143.54 3163.43 L 4143.34 3164.05 L 4142.93 3164.45 L 4142.52 3164.66 L 4141.9 3164.86 L 4140.88 3164.86 L 4140.27 3164.66 L 4139.86 3164.45 L 4139.45 3164.05 L 4139.25 3163.43 L 4139.25 3162 M 4142.72 3166.21 L 4142.93 3166.62 L 4143.54 3167.24 L 4139.25 3167.24" fill="none"  stroke-width="0.6" c_note="note_pre" /></g><g c_partid="part_pcbtext" c_etype="" c_origin="4148,3193" c_rotation="90" c_mirror="0" id="gge133" locked="0" layerid="3" c_shapetype="group" ><path c_fontsize="4.5" c_fontfamily="" c_text="1N4148" d="M 4144.28 3193 L 4144.07 3192.59 L 4143.46 3191.98 L 4147.75 3191.98 M 4143.46 3190.63 L 4147.75 3190.63 M 4143.46 3190.63 L 4147.75 3187.76 M 4143.46 3187.76 L 4147.75 3187.76 M 4143.46 3184.37 L 4146.32 3186.41 L 4146.32 3183.35 M 4143.46 3184.37 L 4147.75 3184.37 M 4144.28 3182 L 4144.07 3181.59 L 4143.46 3180.97 L 4147.75 3180.97 M 4143.46 3177.58 L 4146.32 3179.62 L 4146.32 3176.55 M 4143.46 3177.58 L 4147.75 3177.58 M 4143.46 3174.18 L 4143.66 3174.8 L 4144.07 3175 L 4144.48 3175 L 4144.89 3174.8 L 4145.1 3174.39 L 4145.3 3173.57 L 4145.5 3172.95 L 4145.91 3172.55 L 4146.32 3172.34 L 4146.94 3172.34 L 4147.35 3172.55 L 4147.55 3172.75 L 4147.75 3173.36 L 4147.75 3174.18 L 4147.55 3174.8 L 4147.35 3175 L 4146.94 3175.2 L 4146.32 3175.2 L 4145.91 3175 L 4145.5 3174.59 L 4145.3 3173.98 L 4145.1 3173.16 L 4144.89 3172.75 L 4144.48 3172.55 L 4144.07 3172.55 L 4143.66 3172.75 L 4143.46 3173.36 L 4143.46 3174.18" fill="none"  stroke-width="0.6" c_note="note_name" /></g><g c_partid="part_pcbtext" c_etype="" c_origin="4139,3161.5" c_rotation="90" c_mirror="0" id="gge135" locked="0" layerid="3" c_shapetype="group" display="none"><path c_fontsize="4.5" c_fontfamily="" c_text="D2" d="M 4134.46 3161.5 L 4138.75 3161.5 M 4134.46 3161.5 L 4134.46 3160.07 L 4134.66 3159.45 L 4135.07 3159.05 L 4135.48 3158.84 L 4136.1 3158.64 L 4137.12 3158.64 L 4137.73 3158.84 L 4138.14 3159.05 L 4138.55 3159.45 L 4138.75 3160.07 L 4138.75 3161.5 M 4135.48 3157.08 L 4135.28 3157.08 L 4134.87 3156.88 L 4134.66 3156.67 L 4134.46 3156.26 L 4134.46 3155.45 L 4134.66 3155.04 L 4134.87 3154.83 L 4135.28 3154.63 L 4135.69 3154.63 L 4136.1 3154.83 L 4136.71 3155.24 L 4138.75 3157.29 L 4138.75 3154.42" fill="none"  stroke-width="0.6" c_note="note_pre" /></g><g c_partid="part_pcbtext" c_etype="" c_origin="4105.5,3247.5" c_rotation="0" c_mirror="0" id="gge165" locked="0" layerid="3" c_shapetype="group" ><path c_fontsize="4.5" c_fontfamily="" c_text="2N3906" d="M 4105.7 3243.98 L 4105.7 3243.78 L 4105.91 3243.37 L 4106.11 3243.16 L 4106.52 3242.96 L 4107.34 3242.96 L 4107.75 3243.16 L 4107.95 3243.37 L 4108.16 3243.78 L 4108.16 3244.19 L 4107.95 3244.6 L 4107.55 3245.21 L 4105.5 3247.25 L 4108.36 3247.25 M 4109.71 3242.96 L 4109.71 3247.25 M 4109.71 3242.96 L 4112.58 3247.25 M 4112.58 3242.96 L 4112.58 3247.25 M 4114.34 3242.96 L 4116.59 3242.96 L 4115.36 3244.6 L 4115.97 3244.6 L 4116.38 3244.8 L 4116.59 3245 L 4116.79 3245.62 L 4116.79 3246.03 L 4116.59 3246.64 L 4116.18 3247.05 L 4115.56 3247.25 L 4114.95 3247.25 L 4114.34 3247.05 L 4114.13 3246.85 L 4113.93 3246.44 M 4120.8 3244.39 L 4120.6 3245 L 4120.19 3245.41 L 4119.57 3245.62 L 4119.37 3245.62 L 4118.75 3245.41 L 4118.35 3245 L 4118.14 3244.39 L 4118.14 3244.19 L 4118.35 3243.57 L 4118.75 3243.16 L 4119.37 3242.96 L 4119.57 3242.96 L 4120.19 3243.16 L 4120.6 3243.57 L 4120.8 3244.39 L 4120.8 3245.41 L 4120.6 3246.44 L 4120.19 3247.05 L 4119.57 3247.25 L 4119.16 3247.25 L 4118.55 3247.05 L 4118.35 3246.64 M 4123.38 3242.96 L 4122.76 3243.16 L 4122.35 3243.78 L 4122.15 3244.8 L 4122.15 3245.41 L 4122.35 3246.44 L 4122.76 3247.05 L 4123.38 3247.25 L 4123.79 3247.25 L 4124.4 3247.05 L 4124.81 3246.44 L 4125.01 3245.41 L 4125.01 3244.8 L 4124.81 3243.78 L 4124.4 3243.16 L 4123.79 3242.96 L 4123.38 3242.96 M 4128.82 3243.57 L 4128.61 3243.16 L 4128 3242.96 L 4127.59 3242.96 L 4126.98 3243.16 L 4126.57 3243.78 L 4126.36 3244.8 L 4126.36 3245.82 L 4126.57 3246.64 L 4126.98 3247.05 L 4127.59 3247.25 L 4127.8 3247.25 L 4128.41 3247.05 L 4128.82 3246.64 L 4129.02 3246.03 L 4129.02 3245.82 L 4128.82 3245.21 L 4128.41 3244.8 L 4127.8 3244.6 L 4127.59 3244.6 L 4126.98 3244.8 L 4126.57 3245.21 L 4126.36 3245.82" fill="none"  stroke-width="0.6" c_note="note_name" /></g><g c_partid="part_pcbtext" c_etype="" c_origin="4116.42,3226.24" c_rotation="0" c_mirror="0" id="gge167" locked="0" layerid="3" c_shapetype="group" display="none"><path c_fontsize="4.5" c_fontfamily="" c_text="Q1" d="M 4117.65 3221.7 L 4117.24 3221.9 L 4116.83 3222.31 L 4116.62 3222.72 L 4116.42 3223.34 L 4116.42 3224.36 L 4116.62 3224.97 L 4116.83 3225.38 L 4117.24 3225.79 L 4117.65 3225.99 L 4118.47 3225.99 L 4118.87 3225.79 L 4119.28 3225.38 L 4119.49 3224.97 L 4119.69 3224.36 L 4119.69 3223.34 L 4119.49 3222.72 L 4119.28 3222.31 L 4118.87 3221.9 L 4118.47 3221.7 L 4117.65 3221.7 M 4118.26 3225.18 L 4119.49 3226.4 M 4121.04 3222.52 L 4121.45 3222.31 L 4122.07 3221.7 L 4122.07 3225.99" fill="none"  stroke-width="0.6" c_note="note_pre" /></g><g c_partid="part_pcbtext" c_etype="" c_origin="4134,3260.5" c_rotation="0" c_mirror="0" id="gge200" locked="0" layerid="3" c_shapetype="group" ><path c_fontsize="4.5" c_fontfamily="" c_text="2N3906" d="M 4134.2 3256.98 L 4134.2 3256.78 L 4134.41 3256.37 L 4134.61 3256.16 L 4135.02 3255.96 L 4135.84 3255.96 L 4136.25 3256.16 L 4136.45 3256.37 L 4136.66 3256.78 L 4136.66 3257.19 L 4136.45 3257.6 L 4136.05 3258.21 L 4134 3260.25 L 4136.86 3260.25 M 4138.21 3255.96 L 4138.21 3260.25 M 4138.21 3255.96 L 4141.08 3260.25 M 4141.08 3255.96 L 4141.08 3260.25 M 4142.84 3255.96 L 4145.09 3255.96 L 4143.86 3257.6 L 4144.47 3257.6 L 4144.88 3257.8 L 4145.09 3258 L 4145.29 3258.62 L 4145.29 3259.03 L 4145.09 3259.64 L 4144.68 3260.05 L 4144.06 3260.25 L 4143.45 3260.25 L 4142.84 3260.05 L 4142.63 3259.85 L 4142.43 3259.44 M 4149.3 3257.39 L 4149.1 3258 L 4148.69 3258.41 L 4148.07 3258.62 L 4147.87 3258.62 L 4147.25 3258.41 L 4146.85 3258 L 4146.64 3257.39 L 4146.64 3257.19 L 4146.85 3256.57 L 4147.25 3256.16 L 4147.87 3255.96 L 4148.07 3255.96 L 4148.69 3256.16 L 4149.1 3256.57 L 4149.3 3257.39 L 4149.3 3258.41 L 4149.1 3259.44 L 4148.69 3260.05 L 4148.07 3260.25 L 4147.66 3260.25 L 4147.05 3260.05 L 4146.85 3259.64 M 4151.88 3255.96 L 4151.26 3256.16 L 4150.85 3256.78 L 4150.65 3257.8 L 4150.65 3258.41 L 4150.85 3259.44 L 4151.26 3260.05 L 4151.88 3260.25 L 4152.29 3260.25 L 4152.9 3260.05 L 4153.31 3259.44 L 4153.51 3258.41 L 4153.51 3257.8 L 4153.31 3256.78 L 4152.9 3256.16 L 4152.29 3255.96 L 4151.88 3255.96 M 4157.32 3256.57 L 4157.11 3256.16 L 4156.5 3255.96 L 4156.09 3255.96 L 4155.48 3256.16 L 4155.07 3256.78 L 4154.86 3257.8 L 4154.86 3258.82 L 4155.07 3259.64 L 4155.48 3260.05 L 4156.09 3260.25 L 4156.3 3260.25 L 4156.91 3260.05 L 4157.32 3259.64 L 4157.52 3259.03 L 4157.52 3258.82 L 4157.32 3258.21 L 4156.91 3257.8 L 4156.3 3257.6 L 4156.09 3257.6 L 4155.48 3257.8 L 4155.07 3258.21 L 4154.86 3258.82" fill="none"  stroke-width="0.6" c_note="note_name" /></g><g c_partid="part_pcbtext" c_etype="" c_origin="4147.92,3233.74" c_rotation="0" c_mirror="0" id="gge202" locked="0" layerid="3" c_shapetype="group" display="none"><path c_fontsize="4.5" c_fontfamily="" c_text="Q2" d="M 4149.15 3229.2 L 4148.74 3229.4 L 4148.33 3229.81 L 4148.12 3230.22 L 4147.92 3230.84 L 4147.92 3231.86 L 4148.12 3232.47 L 4148.33 3232.88 L 4148.74 3233.29 L 4149.15 3233.49 L 4149.97 3233.49 L 4150.37 3233.29 L 4150.78 3232.88 L 4150.99 3232.47 L 4151.19 3231.86 L 4151.19 3230.84 L 4150.99 3230.22 L 4150.78 3229.81 L 4150.37 3229.4 L 4149.97 3229.2 L 4149.15 3229.2 M 4149.76 3232.68 L 4150.99 3233.9 M 4152.75 3230.22 L 4152.75 3230.02 L 4152.95 3229.61 L 4153.16 3229.4 L 4153.57 3229.2 L 4154.38 3229.2 L 4154.79 3229.4 L 4155 3229.61 L 4155.2 3230.02 L 4155.2 3230.43 L 4155 3230.84 L 4154.59 3231.45 L 4152.54 3233.49 L 4155.41 3233.49" fill="none"  stroke-width="0.6" c_note="note_pre" /></g><g c_partid="part_pcbtext" c_etype="" c_origin="4062.83,3235.697" c_rotation="90" c_mirror="0" id="gge235" locked="0" layerid="3" c_shapetype="group" ><path c_fontsize="4.5" c_fontfamily="" c_text="1M" d="M 4059.1102 3235.6968 L 4058.9002 3235.2868 L 4058.2902 3234.6768 L 4062.5802 3234.6768 M 4058.2902 3233.3268 L 4062.5802 3233.3268 M 4058.2902 3233.3268 L 4062.5802 3231.6868 M 4058.2902 3230.0468 L 4062.5802 3231.6868 M 4058.2902 3230.0468 L 4062.5802 3230.0468" fill="none"  stroke-width="0.6" c_note="note_name" /></g><g c_partid="part_pcbtext" c_etype="" c_origin="4057.5,3232.5" c_rotation="270" c_mirror="0" id="gge237" locked="0" layerid="3" c_shapetype="group" display="none"><path c_fontsize="4.5" c_fontfamily="" c_text="R1" d="M 4062.04 3232.5 L 4057.75 3232.5 M 4062.04 3232.5 L 4062.04 3234.34 L 4061.84 3234.95 L 4061.63 3235.16 L 4061.22 3235.36 L 4060.81 3235.36 L 4060.4 3235.16 L 4060.2 3234.95 L 4060 3234.34 L 4060 3232.5 M 4060 3233.93 L 4057.75 3235.36 M 4061.22 3236.71 L 4061.43 3237.12 L 4062.04 3237.74 L 4057.75 3237.74" fill="none"  stroke-width="0.6" c_note="note_pre" /></g><g c_partid="part_pcbtext" c_etype="" c_origin="4120,3207.5" c_rotation="0" c_mirror="0" id="gge261" locked="0" layerid="3" c_shapetype="group" ><path c_fontsize="4.5" c_fontfamily="" c_text="10K" d="M 4120 3203.78 L 4120.41 3203.57 L 4121.02 3202.96 L 4121.02 3207.25 M 4123.6 3202.96 L 4122.99 3203.16 L 4122.58 3203.78 L 4122.37 3204.8 L 4122.37 3205.41 L 4122.58 3206.44 L 4122.99 3207.05 L 4123.6 3207.25 L 4124.01 3207.25 L 4124.62 3207.05 L 4125.03 3206.44 L 4125.24 3205.41 L 4125.24 3204.8 L 4125.03 3203.78 L 4124.62 3203.16 L 4124.01 3202.96 L 4123.6 3202.96 M 4126.59 3202.96 L 4126.59 3207.25 M 4129.45 3202.96 L 4126.59 3205.82 M 4127.61 3204.8 L 4129.45 3207.25" fill="none"  stroke-width="0.6" c_note="note_name" /></g><g c_partid="part_pcbtext" c_etype="" c_origin="4129.5,3194.5" c_rotation="270" c_mirror="0" id="gge263" locked="0" layerid="3" c_shapetype="group" display="none"><path c_fontsize="4.5" c_fontfamily="" c_text="R2" d="M 4134.04 3194.5 L 4129.75 3194.5 M 4134.04 3194.5 L 4134.04 3196.34 L 4133.84 3196.95 L 4133.63 3197.16 L 4133.22 3197.36 L 4132.81 3197.36 L 4132.4 3197.16 L 4132.2 3196.95 L 4132 3196.34 L 4132 3194.5 M 4132 3195.93 L 4129.75 3197.36 M 4133.02 3198.92 L 4133.22 3198.92 L 4133.63 3199.12 L 4133.84 3199.33 L 4134.04 3199.74 L 4134.04 3200.55 L 4133.84 3200.96 L 4133.63 3201.17 L 4133.22 3201.37 L 4132.81 3201.37 L 4132.4 3201.17 L 4131.79 3200.76 L 4129.75 3198.71 L 4129.75 3201.58" fill="none"  stroke-width="0.6" c_note="note_pre" /></g><g c_partid="part_pcbtext" c_etype="" c_origin="4105.33,3267.016" c_rotation="90" c_mirror="0" id="gge287" locked="0" layerid="3" c_shapetype="group" ><path c_fontsize="4.5" c_fontfamily="" c_text="10K" d="M 4101.6101 3267.0164 L 4101.4001 3266.6064 L 4100.7901 3265.9964 L 4105.0801 3265.9964 M 4100.7901 3263.4164 L 4100.9901 3264.0264 L 4101.6101 3264.4364 L 4102.6301 3264.6464 L 4103.2401 3264.6464 L 4104.2701 3264.4364 L 4104.8801 3264.0264 L 4105.0801 3263.4164 L 4105.0801 3263.0064 L 4104.8801 3262.3964 L 4104.2701 3261.9864 L 4103.2401 3261.7764 L 4102.6301 3261.7764 L 4101.6101 3261.9864 L 4100.9901 3262.3964 L 4100.7901 3263.0064 L 4100.7901 3263.4164 M 4100.7901 3260.4264 L 4105.0801 3260.4264 M 4100.7901 3257.5664 L 4103.6501 3260.4264 M 4102.6301 3259.4064 L 4105.0801 3257.5664" fill="none"  stroke-width="0.6" c_note="note_name" /></g><g c_partid="part_pcbtext" c_etype="" c_origin="4099,3262" c_rotation="270" c_mirror="0" id="gge289" locked="0" layerid="3" c_shapetype="group" display="none"><path c_fontsize="4.5" c_fontfamily="" c_text="R3" d="M 4103.54 3262 L 4099.25 3262 M 4103.54 3262 L 4103.54 3263.84 L 4103.34 3264.45 L 4103.13 3264.66 L 4102.72 3264.86 L 4102.31 3264.86 L 4101.9 3264.66 L 4101.7 3264.45 L 4101.5 3263.84 L 4101.5 3262 M 4101.5 3263.43 L 4099.25 3264.86 M 4103.54 3266.62 L 4103.54 3268.87 L 4101.9 3267.65 L 4101.9 3268.26 L 4101.7 3268.67 L 4101.5 3268.87 L 4100.88 3269.08 L 4100.47 3269.08 L 4099.86 3268.87 L 4099.45 3268.46 L 4099.25 3267.85 L 4099.25 3267.24 L 4099.45 3266.62 L 4099.65 3266.42 L 4100.06 3266.21" fill="none"  stroke-width="0.6" c_note="note_pre" /></g><g c_partid="part_pcbtext" c_etype="" c_origin="4088.5,3227.5" c_rotation="90" c_mirror="0" id="gge313" locked="0" layerid="3" c_shapetype="group" ><path c_fontsize="4.5" c_fontfamily="" c_text="82K" d="M 4083.96 3226.48 L 4084.16 3227.09 L 4084.57 3227.3 L 4084.98 3227.3 L 4085.39 3227.09 L 4085.6 3226.68 L 4085.8 3225.86 L 4086 3225.25 L 4086.41 3224.84 L 4086.82 3224.64 L 4087.44 3224.64 L 4087.85 3224.84 L 4088.05 3225.05 L 4088.25 3225.66 L 4088.25 3226.48 L 4088.05 3227.09 L 4087.85 3227.3 L 4087.44 3227.5 L 4086.82 3227.5 L 4086.41 3227.3 L 4086 3226.89 L 4085.8 3226.27 L 4085.6 3225.45 L 4085.39 3225.05 L 4084.98 3224.84 L 4084.57 3224.84 L 4084.16 3225.05 L 4083.96 3225.66 L 4083.96 3226.48 M 4084.98 3223.08 L 4084.78 3223.08 L 4084.37 3222.88 L 4084.16 3222.67 L 4083.96 3222.26 L 4083.96 3221.45 L 4084.16 3221.04 L 4084.37 3220.83 L 4084.78 3220.63 L 4085.19 3220.63 L 4085.6 3220.83 L 4086.21 3221.24 L 4088.25 3223.29 L 4088.25 3220.42 M 4083.96 3219.07 L 4088.25 3219.07 M 4083.96 3216.21 L 4086.82 3219.07 M 4085.8 3218.05 L 4088.25 3216.21" fill="none"  stroke-width="0.6" c_note="note_name" /></g><g c_partid="part_pcbtext" c_etype="" c_origin="4099,3221" c_rotation="270" c_mirror="0" id="gge315" locked="0" layerid="3" c_shapetype="group" display="none"><path c_fontsize="4.5" c_fontfamily="" c_text="R4" d="M 4103.54 3221 L 4099.25 3221 M 4103.54 3221 L 4103.54 3222.84 L 4103.34 3223.45 L 4103.13 3223.66 L 4102.72 3223.86 L 4102.31 3223.86 L 4101.9 3223.66 L 4101.7 3223.45 L 4101.5 3222.84 L 4101.5 3221 M 4101.5 3222.43 L 4099.25 3223.86 M 4103.54 3227.26 L 4100.68 3225.21 L 4100.68 3228.28 M 4103.54 3227.26 L 4099.25 3227.26" fill="none"  stroke-width="0.6" c_note="note_pre" /></g><path d="M 4074.0575 3213.8693 A 0.6 0.6 0 0 0 4073.4575 3213.2693" locked="0"  fill="none" stroke-width="0.6" c_helper_type="arc2" net="" layerid="3" id="gge47" /><path d="M 4067.5425 3213.2693 A 0.6 0.6 0 0 0 4066.9425 3213.8693" locked="0"  fill="none" stroke-width="0.6" c_helper_type="arc2" net="" layerid="3" id="gge48" /><path d="M 4074.0575 3228.1307 A 0.6 0.6 0 0 1 4073.4575 3228.7307" locked="0"  fill="none" stroke-width="0.6" c_helper_type="arc2" net="" layerid="3" id="gge49" /><path d="M 4067.5425 3228.7307 A 0.6 0.6 0 0 1 4066.9425 3228.1307" locked="0"  fill="none" stroke-width="0.6" c_helper_type="arc2" net="" layerid="3" id="gge50" /><path d="M 4168.463 3210.9988 A 0.6 0.6 0 0 0 4167.863 3210.3988" locked="0"  fill="none" stroke-width="0.6" c_helper_type="arc2" net="" layerid="3" id="gge81" /><path d="M 4165.137 3210.3988 A 0.6 0.6 0 0 0 4164.537 3210.9988" locked="0"  fill="none" stroke-width="0.6" c_helper_type="arc2" net="" layerid="3" id="gge82" /><path d="M 4168.463 3219.0012 A 0.6 0.6 0 0 1 4167.863 3219.6012" locked="0"  fill="none" stroke-width="0.6" c_helper_type="arc2" net="" layerid="3" id="gge83" /><path d="M 4165.137 3219.6012 A 0.6 0.6 0 0 1 4164.537 3219.0012" locked="0"  fill="none" stroke-width="0.6" c_helper_type="arc2" net="" layerid="3" id="gge84" /><path d="M 4057.437 3266.3819 L 4056.8701 3266.3819 L 4056.8701 3264.1142 L 4057.437 3264.1142 Z" stroke-width="0"   net="" type="solid" layerid="3" id="gge16" locked="0" c_teardrop="" c_targetpad="" c_targetwire="" /><path d="M 4057.437 3248.6181 L 4056.8701 3248.6181 L 4056.8701 3250.8858 L 4057.437 3250.8858 Z" stroke-width="0"   net="" type="solid" layerid="3" id="gge17" locked="0" c_teardrop="" c_targetpad="" c_targetwire="" /><path d="M 4059.0433 3249.4685 L 4055.2638 3249.4685 L 4055.2638 3250.0354 L 4059.0433 3250.0354 Z" stroke-width="0"   net="" type="solid" layerid="3" id="gge18" locked="0" c_teardrop="" c_targetpad="" c_targetwire="" /><path d="M 4137.7102 3156.7638 L 4136.5488 3156.7638 L 4136.5488 3155.5638 L 4137.7102 3155.5638 Z " stroke-width="0"   net="" type="solid" layerid="3" id="gge115" locked="0" c_teardrop="" c_targetpad="" c_targetwire="" /><path d="M 4130.2898 3156.7638 L 4131.4512 3156.7638 L 4131.4512 3155.5638 L 4130.2898 3155.5638 Z " stroke-width="0"   net="" type="solid" layerid="3" id="gge116" locked="0" c_teardrop="" c_targetpad="" c_targetwire="" /><path d="M 4140.2898 3166.7362 L 4141.4512 3166.7362 L 4141.4512 3167.9362 L 4140.2898 3167.9362 Z " stroke-width="0"   net="" type="solid" layerid="3" id="gge147" locked="0" c_teardrop="" c_targetpad="" c_targetwire="" /><path d="M 4147.7102 3166.7362 L 4146.5488 3166.7362 L 4146.5488 3167.9362 L 4147.7102 3167.9362 Z " stroke-width="0"   net="" type="solid" layerid="3" id="gge148" locked="0" c_teardrop="" c_targetpad="" c_targetwire="" /><polyline points="4020.5 3288.5 4190.5 3288.5 4190.5 3148.5 4020.5 3148.5 4020.5 3288.5" stroke-width="1"  stroke-linecap="round" fill="none" layerid="10" net="S$830" id="gge829" locked="0" /></svg>